<?xml version="1.0" standalone="no"?>
 <!DOCTYPE svg PUBLIC "-//W3C//DTD SVG 1.1//EN" 
 "http://www.w3.org/Graphics/SVG/1.1/DTD/svg11.dtd"> 
<svg
  xmlns:svg="http://www.w3.org/2000/svg"
  xmlns="http://www.w3.org/2000/svg"
  xmlns:xlink="http://www.w3.org/1999/xlink"
  version="1.1"
  width="297.0022mm" height="210.0072mm" viewBox="0.0000 0.0000 297.0022 210.0072">
<title>SVG Image created as hardware-B_Cu.svg date 2023/08/18 14:22:45 </title>
  <desc>Image generated by PCBNEW </desc>
<g style="fill:#000000; fill-opacity:1.0000;stroke:#000000; stroke-opacity:1.0000;
stroke-linecap:round; stroke-linejoin:round;"
 transform="translate(0 0) scale(1 1)">
</g>
<g style="fill:#000000; fill-opacity:0.0; 
stroke:#000000; stroke-width:0.0000; stroke-opacity:1; 
stroke-linecap:round; stroke-linejoin:round;">
<g >
</g>
<g >
</g>
<g >
</g>
<g style="fill:#000000; fill-opacity:0.0; 
stroke:#000000; stroke-width:0.0000; stroke-opacity:1; 
stroke-linecap:round; stroke-linejoin:round;">
</g>
<g style="fill:#000000; fill-opacity:0.0; 
stroke:#000000; stroke-width:0.0000; stroke-opacity:1; 
stroke-linecap:round; stroke-linejoin:round;">
</g>
<g style="fill:#000000; fill-opacity:1.0000; 
stroke:#000000; stroke-width:0.0000; stroke-opacity:1; 
stroke-linecap:round; stroke-linejoin:round;">
<path style="fill:#000000; fill-opacity:1.0000; 
stroke:#000000; stroke-width:0.0000; stroke-opacity:1; 
stroke-linecap:round; stroke-linejoin:round;fill-rule:evenodd;"
d="M 161.2750,100.6000
161.2560,100.6957
161.2018,100.7768
161.1207,100.8310
161.0250,100.8500
160.5000,100.8500
160.4043,100.8310
160.3232,100.7768
160.2690,100.6957
160.2500,100.6000
160.2500,99.7000
160.2690,99.6043
160.3232,99.5232
160.4043,99.4690
160.5000,99.4500
161.0250,99.4500
161.1207,99.4690
161.2018,99.5232
161.2560,99.6043
161.2750,99.7000
Z" /> 
<path style="fill:#000000; fill-opacity:1.0000; 
stroke:#000000; stroke-width:0.0000; stroke-opacity:1; 
stroke-linecap:round; stroke-linejoin:round;fill-rule:evenodd;"
d="M 159.4500,100.6000
159.4310,100.6957
159.3768,100.7768
159.2957,100.8310
159.2000,100.8500
158.6750,100.8500
158.5793,100.8310
158.4982,100.7768
158.4440,100.6957
158.4250,100.6000
158.4250,99.7000
158.4440,99.6043
158.4982,99.5232
158.5793,99.4690
158.6750,99.4500
159.2000,99.4500
159.2957,99.4690
159.3768,99.5232
159.4310,99.6043
159.4500,99.7000
Z" /> 
</g>
<g >
</g>
<g style="fill:#000000; fill-opacity:1.0000; 
stroke:#000000; stroke-width:0.0000; stroke-opacity:1; 
stroke-linecap:round; stroke-linejoin:round;">
<circle cx="139.8700" cy="100.3500" r="0.7620" /> 
</g>
<g style="fill:#000000; fill-opacity:1.0000; 
stroke:#000000; stroke-width:0.0212; stroke-opacity:1; 
stroke-linecap:round; stroke-linejoin:round;">
</g>
<g style="fill:#000000; fill-opacity:1.0000; 
stroke:#000000; stroke-width:0.0000; stroke-opacity:1; 
stroke-linecap:round; stroke-linejoin:round;">
<circle cx="142.4100" cy="100.3500" r="0.7620" /> 
</g>
<g style="fill:#000000; fill-opacity:1.0000; 
stroke:#000000; stroke-width:0.0212; stroke-opacity:1; 
stroke-linecap:round; stroke-linejoin:round;">
</g>
<g style="fill:#000000; fill-opacity:1.0000; 
stroke:#000000; stroke-width:0.0000; stroke-opacity:1; 
stroke-linecap:round; stroke-linejoin:round;">
<circle cx="144.9500" cy="100.3500" r="0.7620" /> 
</g>
<g style="fill:#000000; fill-opacity:1.0000; 
stroke:#000000; stroke-width:0.0212; stroke-opacity:1; 
stroke-linecap:round; stroke-linejoin:round;">
</g>
<g style="fill:#000000; fill-opacity:1.0000; 
stroke:#000000; stroke-width:0.0000; stroke-opacity:1; 
stroke-linecap:round; stroke-linejoin:round;">
<circle cx="147.4900" cy="100.3500" r="0.7620" /> 
</g>
<g style="fill:#000000; fill-opacity:1.0000; 
stroke:#000000; stroke-width:0.0212; stroke-opacity:1; 
stroke-linecap:round; stroke-linejoin:round;">
</g>
<g style="fill:#000000; fill-opacity:1.0000; 
stroke:#000000; stroke-width:0.0000; stroke-opacity:1; 
stroke-linecap:round; stroke-linejoin:round;">
<circle cx="150.0300" cy="100.3500" r="0.7620" /> 
</g>
<g style="fill:#000000; fill-opacity:1.0000; 
stroke:#000000; stroke-width:0.0212; stroke-opacity:1; 
stroke-linecap:round; stroke-linejoin:round;">
</g>
<g style="fill:#000000; fill-opacity:1.0000; 
stroke:#000000; stroke-width:0.0000; stroke-opacity:1; 
stroke-linecap:round; stroke-linejoin:round;">
<circle cx="152.5700" cy="100.3500" r="0.7620" /> 
</g>
<g style="fill:#000000; fill-opacity:1.0000; 
stroke:#000000; stroke-width:0.0212; stroke-opacity:1; 
stroke-linecap:round; stroke-linejoin:round;">
</g>
<g style="fill:#000000; fill-opacity:1.0000; 
stroke:#000000; stroke-width:0.0000; stroke-opacity:1; 
stroke-linecap:round; stroke-linejoin:round;">
<circle cx="152.5700" cy="85.1100" r="0.7620" /> 
</g>
<g style="fill:#000000; fill-opacity:1.0000; 
stroke:#000000; stroke-width:0.0212; stroke-opacity:1; 
stroke-linecap:round; stroke-linejoin:round;">
</g>
<g style="fill:#000000; fill-opacity:1.0000; 
stroke:#000000; stroke-width:0.0000; stroke-opacity:1; 
stroke-linecap:round; stroke-linejoin:round;">
<circle cx="150.0300" cy="85.1100" r="0.7620" /> 
</g>
<g style="fill:#000000; fill-opacity:1.0000; 
stroke:#000000; stroke-width:0.0212; stroke-opacity:1; 
stroke-linecap:round; stroke-linejoin:round;">
</g>
<g style="fill:#000000; fill-opacity:1.0000; 
stroke:#000000; stroke-width:0.0000; stroke-opacity:1; 
stroke-linecap:round; stroke-linejoin:round;">
<circle cx="147.4900" cy="85.1100" r="0.7620" /> 
</g>
<g style="fill:#000000; fill-opacity:1.0000; 
stroke:#000000; stroke-width:0.0212; stroke-opacity:1; 
stroke-linecap:round; stroke-linejoin:round;">
</g>
<g style="fill:#000000; fill-opacity:1.0000; 
stroke:#000000; stroke-width:0.0000; stroke-opacity:1; 
stroke-linecap:round; stroke-linejoin:round;">
<circle cx="144.9500" cy="85.1100" r="0.7620" /> 
</g>
<g style="fill:#000000; fill-opacity:1.0000; 
stroke:#000000; stroke-width:0.0212; stroke-opacity:1; 
stroke-linecap:round; stroke-linejoin:round;">
</g>
<g style="fill:#000000; fill-opacity:1.0000; 
stroke:#000000; stroke-width:0.0000; stroke-opacity:1; 
stroke-linecap:round; stroke-linejoin:round;">
<circle cx="142.4100" cy="85.1100" r="0.7620" /> 
</g>
<g style="fill:#000000; fill-opacity:1.0000; 
stroke:#000000; stroke-width:0.0212; stroke-opacity:1; 
stroke-linecap:round; stroke-linejoin:round;">
</g>
<g style="fill:#000000; fill-opacity:1.0000; 
stroke:#000000; stroke-width:0.0000; stroke-opacity:1; 
stroke-linecap:round; stroke-linejoin:round;">
<circle cx="139.8700" cy="85.1100" r="0.7620" /> 
</g>
<g style="fill:#000000; fill-opacity:1.0000; 
stroke:#000000; stroke-width:0.0212; stroke-opacity:1; 
stroke-linecap:round; stroke-linejoin:round;">
</g>
<g >
</g>
<g style="fill:#000000; fill-opacity:1.0000; 
stroke:#000000; stroke-width:0.0212; stroke-opacity:1; 
stroke-linecap:round; stroke-linejoin:round;">
</g>
<g style="fill:#000000; fill-opacity:1.0000; 
stroke:#000000; stroke-width:0.0000; stroke-opacity:1; 
stroke-linecap:round; stroke-linejoin:round;">
<path style="fill:#000000; fill-opacity:1.0000; 
stroke:#000000; stroke-width:0.0000; stroke-opacity:1; 
stroke-linecap:round; stroke-linejoin:round;fill-rule:evenodd;"
d="M 135.5000,94.8750
135.5190,94.7793
135.5732,94.6982
135.6543,94.6440
135.7500,94.6250
136.2500,94.6250
136.3457,94.6440
136.4268,94.6982
136.4810,94.7793
136.5000,94.8750
136.5000,95.8250
136.4810,95.9207
136.4268,96.0018
136.3457,96.0560
136.2500,96.0750
135.7500,96.0750
135.6543,96.0560
135.5732,96.0018
135.5190,95.9207
135.5000,95.8250
Z" /> 
<path style="fill:#000000; fill-opacity:1.0000; 
stroke:#000000; stroke-width:0.0000; stroke-opacity:1; 
stroke-linecap:round; stroke-linejoin:round;fill-rule:evenodd;"
d="M 137.4000,94.8750
137.4190,94.7793
137.4732,94.6982
137.5543,94.6440
137.6500,94.6250
138.1500,94.6250
138.2457,94.6440
138.3268,94.6982
138.3810,94.7793
138.4000,94.8750
138.4000,95.8250
138.3810,95.9207
138.3268,96.0018
138.2457,96.0560
138.1500,96.0750
137.6500,96.0750
137.5543,96.0560
137.4732,96.0018
137.4190,95.9207
137.4000,95.8250
Z" /> 
</g>
<g >
</g>
<g style="fill:#000000; fill-opacity:1.0000; 
stroke:#000000; stroke-width:0.0000; stroke-opacity:1; 
stroke-linecap:round; stroke-linejoin:round;">
<path style="fill:#000000; fill-opacity:1.0000; 
stroke:#000000; stroke-width:0.0000; stroke-opacity:1; 
stroke-linecap:round; stroke-linejoin:round;fill-rule:evenodd;"
d="M 129.0938,99.0750
129.0005,99.0564
128.9214,99.0036
128.8686,98.9245
128.8500,98.8312
128.8500,98.3438
128.8686,98.2505
128.9214,98.1714
129.0005,98.1186
129.0938,98.1000
130.0062,98.1000
130.0995,98.1186
130.1786,98.1714
130.2314,98.2505
130.2500,98.3438
130.2500,98.8312
130.2314,98.9245
130.1786,99.0036
130.0995,99.0564
130.0062,99.0750
Z" /> 
<path style="fill:#000000; fill-opacity:1.0000; 
stroke:#000000; stroke-width:0.0000; stroke-opacity:1; 
stroke-linecap:round; stroke-linejoin:round;fill-rule:evenodd;"
d="M 129.0938,97.2000
129.0005,97.1814
128.9214,97.1286
128.8686,97.0495
128.8500,96.9562
128.8500,96.4688
128.8686,96.3755
128.9214,96.2964
129.0005,96.2436
129.0938,96.2250
130.0062,96.2250
130.0995,96.2436
130.1786,96.2964
130.2314,96.3755
130.2500,96.4688
130.2500,96.9562
130.2314,97.0495
130.1786,97.1286
130.0995,97.1814
130.0062,97.2000
Z" /> 
</g>
<g >
</g>
<g style="fill:#000000; fill-opacity:1.0000; 
stroke:#000000; stroke-width:0.0000; stroke-opacity:1; 
stroke-linecap:round; stroke-linejoin:round;">
<circle cx="168.6500" cy="93.3500" r="1.1000" /> 
</g>
<g style="fill:#000000; fill-opacity:1.0000; 
stroke:#000000; stroke-width:0.0212; stroke-opacity:1; 
stroke-linecap:round; stroke-linejoin:round;">
</g>
<g style="fill:#000000; fill-opacity:1.0000; 
stroke:#000000; stroke-width:0.0000; stroke-opacity:1; 
stroke-linecap:round; stroke-linejoin:round;">
<circle cx="168.6500" cy="95.8900" r="1.1000" /> 
</g>
<g style="fill:#000000; fill-opacity:1.0000; 
stroke:#000000; stroke-width:0.0212; stroke-opacity:1; 
stroke-linecap:round; stroke-linejoin:round;">
</g>
<g style="fill:#000000; fill-opacity:1.0000; 
stroke:#000000; stroke-width:0.0000; stroke-opacity:1; 
stroke-linecap:round; stroke-linejoin:round;">
<path style="fill:#000000; fill-opacity:1.0000; 
stroke:#000000; stroke-width:0.0000; stroke-opacity:1; 
stroke-linecap:round; stroke-linejoin:round;fill-rule:evenodd;"
d="M 169.7500,99.5300
167.5500,99.5300
167.5500,97.3300
169.7500,97.3300
Z" /> 
</g>
<g >
</g>
<g style="fill:#000000; fill-opacity:1.0000; 
stroke:#000000; stroke-width:0.0000; stroke-opacity:1; 
stroke-linecap:round; stroke-linejoin:round;">
<path style="fill:#000000; fill-opacity:1.0000; 
stroke:#000000; stroke-width:0.0000; stroke-opacity:1; 
stroke-linecap:round; stroke-linejoin:round;fill-rule:evenodd;"
d="M 154.0750,96.4000
153.9793,96.3810
153.8982,96.3268
153.8440,96.2457
153.8250,96.1500
153.8250,95.6500
153.8440,95.5543
153.8982,95.4732
153.9793,95.4190
154.0750,95.4000
155.0250,95.4000
155.1207,95.4190
155.2018,95.4732
155.2560,95.5543
155.2750,95.6500
155.2750,96.1500
155.2560,96.2457
155.2018,96.3268
155.1207,96.3810
155.0250,96.4000
Z" /> 
<path style="fill:#000000; fill-opacity:1.0000; 
stroke:#000000; stroke-width:0.0000; stroke-opacity:1; 
stroke-linecap:round; stroke-linejoin:round;fill-rule:evenodd;"
d="M 154.0750,94.5000
153.9793,94.4810
153.8982,94.4268
153.8440,94.3457
153.8250,94.2500
153.8250,93.7500
153.8440,93.6543
153.8982,93.5732
153.9793,93.5190
154.0750,93.5000
155.0250,93.5000
155.1207,93.5190
155.2018,93.5732
155.2560,93.6543
155.2750,93.7500
155.2750,94.2500
155.2560,94.3457
155.2018,94.4268
155.1207,94.4810
155.0250,94.5000
Z" /> 
</g>
<g >
</g>
<g style="fill:#000000; fill-opacity:1.0000; 
stroke:#000000; stroke-width:0.0000; stroke-opacity:1; 
stroke-linecap:round; stroke-linejoin:round;">
<path style="fill:#000000; fill-opacity:1.0000; 
stroke:#000000; stroke-width:0.0000; stroke-opacity:1; 
stroke-linecap:round; stroke-linejoin:round;fill-rule:evenodd;"
d="M 155.0250,88.5000
155.1207,88.5190
155.2018,88.5732
155.2560,88.6543
155.2750,88.7500
155.2750,89.2500
155.2560,89.3457
155.2018,89.4268
155.1207,89.4810
155.0250,89.5000
154.0750,89.5000
153.9793,89.4810
153.8982,89.4268
153.8440,89.3457
153.8250,89.2500
153.8250,88.7500
153.8440,88.6543
153.8982,88.5732
153.9793,88.5190
154.0750,88.5000
Z" /> 
<path style="fill:#000000; fill-opacity:1.0000; 
stroke:#000000; stroke-width:0.0000; stroke-opacity:1; 
stroke-linecap:round; stroke-linejoin:round;fill-rule:evenodd;"
d="M 155.0250,90.4000
155.1207,90.4190
155.2018,90.4732
155.2560,90.5543
155.2750,90.6500
155.2750,91.1500
155.2560,91.2457
155.2018,91.3268
155.1207,91.3810
155.0250,91.4000
154.0750,91.4000
153.9793,91.3810
153.8982,91.3268
153.8440,91.2457
153.8250,91.1500
153.8250,90.6500
153.8440,90.5543
153.8982,90.4732
153.9793,90.4190
154.0750,90.4000
Z" /> 
</g>
<g >
</g>
<g style="fill:#000000; fill-opacity:1.0000; 
stroke:#000000; stroke-width:0.0000; stroke-opacity:1; 
stroke-linecap:round; stroke-linejoin:round;">
<path style="fill:#000000; fill-opacity:1.0000; 
stroke:#000000; stroke-width:0.0000; stroke-opacity:1; 
stroke-linecap:round; stroke-linejoin:round;fill-rule:evenodd;"
d="M 134.0750,85.0000
134.0560,85.0957
134.0018,85.1768
133.9207,85.2310
133.8250,85.2500
133.3000,85.2500
133.2043,85.2310
133.1232,85.1768
133.0690,85.0957
133.0500,85.0000
133.0500,84.1000
133.0690,84.0043
133.1232,83.9232
133.2043,83.8690
133.3000,83.8500
133.8250,83.8500
133.9207,83.8690
134.0018,83.9232
134.0560,84.0043
134.0750,84.1000
Z" /> 
<path style="fill:#000000; fill-opacity:1.0000; 
stroke:#000000; stroke-width:0.0000; stroke-opacity:1; 
stroke-linecap:round; stroke-linejoin:round;fill-rule:evenodd;"
d="M 132.2500,85.0000
132.2310,85.0957
132.1768,85.1768
132.0957,85.2310
132.0000,85.2500
131.4750,85.2500
131.3793,85.2310
131.2982,85.1768
131.2440,85.0957
131.2250,85.0000
131.2250,84.1000
131.2440,84.0043
131.2982,83.9232
131.3793,83.8690
131.4750,83.8500
132.0000,83.8500
132.0957,83.8690
132.1768,83.9232
132.2310,84.0043
132.2500,84.1000
Z" /> 
</g>
<g >
</g>
<g style="fill:#000000; fill-opacity:1.0000; 
stroke:#000000; stroke-width:0.0000; stroke-opacity:1; 
stroke-linecap:round; stroke-linejoin:round;">
<path style="fill:#000000; fill-opacity:1.0000; 
stroke:#000000; stroke-width:0.0000; stroke-opacity:1; 
stroke-linecap:round; stroke-linejoin:round;fill-rule:evenodd;"
d="M 133.6250,96.6500
133.5867,96.6424
133.5543,96.6207
133.5326,96.5883
133.5250,96.5500
133.5250,95.2750
133.5326,95.2367
133.5543,95.2043
133.5867,95.1826
133.6250,95.1750
133.8250,95.1750
133.8633,95.1826
133.8957,95.2043
133.9174,95.2367
133.9250,95.2750
133.9250,96.5500
133.9174,96.5883
133.8957,96.6207
133.8633,96.6424
133.8250,96.6500
Z" /> 
<path style="fill:#000000; fill-opacity:1.0000; 
stroke:#000000; stroke-width:0.0000; stroke-opacity:1; 
stroke-linecap:round; stroke-linejoin:round;fill-rule:evenodd;"
d="M 132.9750,96.6500
132.9367,96.6424
132.9043,96.6207
132.8826,96.5883
132.8750,96.5500
132.8750,95.2750
132.8826,95.2367
132.9043,95.2043
132.9367,95.1826
132.9750,95.1750
133.1750,95.1750
133.2133,95.1826
133.2457,95.2043
133.2674,95.2367
133.2750,95.2750
133.2750,96.5500
133.2674,96.5883
133.2457,96.6207
133.2133,96.6424
133.1750,96.6500
Z" /> 
<path style="fill:#000000; fill-opacity:1.0000; 
stroke:#000000; stroke-width:0.0000; stroke-opacity:1; 
stroke-linecap:round; stroke-linejoin:round;fill-rule:evenodd;"
d="M 132.3250,96.6500
132.2867,96.6424
132.2543,96.6207
132.2326,96.5883
132.2250,96.5500
132.2250,95.2750
132.2326,95.2367
132.2543,95.2043
132.2867,95.1826
132.3250,95.1750
132.5250,95.1750
132.5633,95.1826
132.5957,95.2043
132.6174,95.2367
132.6250,95.2750
132.6250,96.5500
132.6174,96.5883
132.5957,96.6207
132.5633,96.6424
132.5250,96.6500
Z" /> 
<path style="fill:#000000; fill-opacity:1.0000; 
stroke:#000000; stroke-width:0.0000; stroke-opacity:1; 
stroke-linecap:round; stroke-linejoin:round;fill-rule:evenodd;"
d="M 131.6750,96.6500
131.6367,96.6424
131.6043,96.6207
131.5826,96.5883
131.5750,96.5500
131.5750,95.2750
131.5826,95.2367
131.6043,95.2043
131.6367,95.1826
131.6750,95.1750
131.8750,95.1750
131.9133,95.1826
131.9457,95.2043
131.9674,95.2367
131.9750,95.2750
131.9750,96.5500
131.9674,96.5883
131.9457,96.6207
131.9133,96.6424
131.8750,96.6500
Z" /> 
<path style="fill:#000000; fill-opacity:1.0000; 
stroke:#000000; stroke-width:0.0000; stroke-opacity:1; 
stroke-linecap:round; stroke-linejoin:round;fill-rule:evenodd;"
d="M 131.6750,90.9250
131.6367,90.9174
131.6043,90.8957
131.5826,90.8633
131.5750,90.8250
131.5750,89.5500
131.5826,89.5117
131.6043,89.4793
131.6367,89.4576
131.6750,89.4500
131.8750,89.4500
131.9133,89.4576
131.9457,89.4793
131.9674,89.5117
131.9750,89.5500
131.9750,90.8250
131.9674,90.8633
131.9457,90.8957
131.9133,90.9174
131.8750,90.9250
Z" /> 
<path style="fill:#000000; fill-opacity:1.0000; 
stroke:#000000; stroke-width:0.0000; stroke-opacity:1; 
stroke-linecap:round; stroke-linejoin:round;fill-rule:evenodd;"
d="M 132.3250,90.9250
132.2867,90.9174
132.2543,90.8957
132.2326,90.8633
132.2250,90.8250
132.2250,89.5500
132.2326,89.5117
132.2543,89.4793
132.2867,89.4576
132.3250,89.4500
132.5250,89.4500
132.5633,89.4576
132.5957,89.4793
132.6174,89.5117
132.6250,89.5500
132.6250,90.8250
132.6174,90.8633
132.5957,90.8957
132.5633,90.9174
132.5250,90.9250
Z" /> 
<path style="fill:#000000; fill-opacity:1.0000; 
stroke:#000000; stroke-width:0.0000; stroke-opacity:1; 
stroke-linecap:round; stroke-linejoin:round;fill-rule:evenodd;"
d="M 132.9750,90.9250
132.9367,90.9174
132.9043,90.8957
132.8826,90.8633
132.8750,90.8250
132.8750,89.5500
132.8826,89.5117
132.9043,89.4793
132.9367,89.4576
132.9750,89.4500
133.1750,89.4500
133.2133,89.4576
133.2457,89.4793
133.2674,89.5117
133.2750,89.5500
133.2750,90.8250
133.2674,90.8633
133.2457,90.8957
133.2133,90.9174
133.1750,90.9250
Z" /> 
<path style="fill:#000000; fill-opacity:1.0000; 
stroke:#000000; stroke-width:0.0000; stroke-opacity:1; 
stroke-linecap:round; stroke-linejoin:round;fill-rule:evenodd;"
d="M 133.6250,90.9250
133.5867,90.9174
133.5543,90.8957
133.5326,90.8633
133.5250,90.8250
133.5250,89.5500
133.5326,89.5117
133.5543,89.4793
133.5867,89.4576
133.6250,89.4500
133.8250,89.4500
133.8633,89.4576
133.8957,89.4793
133.9174,89.5117
133.9250,89.5500
133.9250,90.8250
133.9174,90.8633
133.8957,90.8957
133.8633,90.9174
133.8250,90.9250
Z" /> 
</g>
<g >
</g>
<g style="fill:#000000; fill-opacity:1.0000; 
stroke:#000000; stroke-width:0.0000; stroke-opacity:1; 
stroke-linecap:round; stroke-linejoin:round;">
<path style="fill:#000000; fill-opacity:1.0000; 
stroke:#000000; stroke-width:0.0000; stroke-opacity:1; 
stroke-linecap:round; stroke-linejoin:round;fill-rule:evenodd;"
d="M 135.5000,91.5750
135.5190,91.4793
135.5732,91.3982
135.6543,91.3440
135.7500,91.3250
136.2500,91.3250
136.3457,91.3440
136.4268,91.3982
136.4810,91.4793
136.5000,91.5750
136.5000,92.5250
136.4810,92.6207
136.4268,92.7018
136.3457,92.7560
136.2500,92.7750
135.7500,92.7750
135.6543,92.7560
135.5732,92.7018
135.5190,92.6207
135.5000,92.5250
Z" /> 
<path style="fill:#000000; fill-opacity:1.0000; 
stroke:#000000; stroke-width:0.0000; stroke-opacity:1; 
stroke-linecap:round; stroke-linejoin:round;fill-rule:evenodd;"
d="M 137.4000,91.5750
137.4190,91.4793
137.4732,91.3982
137.5543,91.3440
137.6500,91.3250
138.1500,91.3250
138.2457,91.3440
138.3268,91.3982
138.3810,91.4793
138.4000,91.5750
138.4000,92.5250
138.3810,92.6207
138.3268,92.7018
138.2457,92.7560
138.1500,92.7750
137.6500,92.7750
137.5543,92.7560
137.4732,92.7018
137.4190,92.6207
137.4000,92.5250
Z" /> 
</g>
<g >
</g>
<g style="fill:#000000; fill-opacity:1.0000; 
stroke:#000000; stroke-width:0.0000; stroke-opacity:1; 
stroke-linecap:round; stroke-linejoin:round;">
<path style="fill:#000000; fill-opacity:1.0000; 
stroke:#000000; stroke-width:0.0000; stroke-opacity:1; 
stroke-linecap:round; stroke-linejoin:round;fill-rule:evenodd;"
d="M 130.0000,92.5250
130.0957,92.5440
130.1768,92.5982
130.2310,92.6793
130.2500,92.7750
130.2500,93.3000
130.2310,93.3957
130.1768,93.4768
130.0957,93.5310
130.0000,93.5500
129.1000,93.5500
129.0043,93.5310
128.9232,93.4768
128.8690,93.3957
128.8500,93.3000
128.8500,92.7750
128.8690,92.6793
128.9232,92.5982
129.0043,92.5440
129.1000,92.5250
Z" /> 
<path style="fill:#000000; fill-opacity:1.0000; 
stroke:#000000; stroke-width:0.0000; stroke-opacity:1; 
stroke-linecap:round; stroke-linejoin:round;fill-rule:evenodd;"
d="M 130.0000,94.3500
130.0957,94.3690
130.1768,94.4232
130.2310,94.5043
130.2500,94.6000
130.2500,95.1250
130.2310,95.2207
130.1768,95.3018
130.0957,95.3560
130.0000,95.3750
129.1000,95.3750
129.0043,95.3560
128.9232,95.3018
128.8690,95.2207
128.8500,95.1250
128.8500,94.6000
128.8690,94.5043
128.9232,94.4232
129.0043,94.3690
129.1000,94.3500
Z" /> 
</g>
<g >
</g>
<g style="fill:#000000; fill-opacity:1.0000; 
stroke:#000000; stroke-width:0.0000; stroke-opacity:1; 
stroke-linecap:round; stroke-linejoin:round;">
<path style="fill:#000000; fill-opacity:1.0000; 
stroke:#000000; stroke-width:0.0000; stroke-opacity:1; 
stroke-linecap:round; stroke-linejoin:round;fill-rule:evenodd;"
d="M 162.8000,87.0000
162.7810,87.0957
162.7268,87.1768
162.6457,87.2310
162.5500,87.2500
160.5500,87.2500
160.4543,87.2310
160.3732,87.1768
160.3190,87.0957
160.3000,87.0000
160.3000,85.7000
160.3190,85.6043
160.3732,85.5232
160.4543,85.4690
160.5500,85.4500
162.5500,85.4500
162.6457,85.4690
162.7268,85.5232
162.7810,85.6043
162.8000,85.7000
Z" /> 
<path style="fill:#000000; fill-opacity:1.0000; 
stroke:#000000; stroke-width:0.0000; stroke-opacity:1; 
stroke-linecap:round; stroke-linejoin:round;fill-rule:evenodd;"
d="M 158.8000,87.0000
158.7810,87.0957
158.7268,87.1768
158.6457,87.2310
158.5500,87.2500
156.5500,87.2500
156.4543,87.2310
156.3732,87.1768
156.3190,87.0957
156.3000,87.0000
156.3000,85.7000
156.3190,85.6043
156.3732,85.5232
156.4543,85.4690
156.5500,85.4500
158.5500,85.4500
158.6457,85.4690
158.7268,85.5232
158.7810,85.6043
158.8000,85.7000
Z" /> 
</g>
<g >
</g>
<g style="fill:#000000; fill-opacity:1.0000; 
stroke:#000000; stroke-width:0.0000; stroke-opacity:1; 
stroke-linecap:round; stroke-linejoin:round;">
<circle cx="168.6500" cy="86.7100" r="1.1000" /> 
</g>
<g style="fill:#000000; fill-opacity:1.0000; 
stroke:#000000; stroke-width:0.0212; stroke-opacity:1; 
stroke-linecap:round; stroke-linejoin:round;">
</g>
<g style="fill:#000000; fill-opacity:1.0000; 
stroke:#000000; stroke-width:0.0000; stroke-opacity:1; 
stroke-linecap:round; stroke-linejoin:round;">
<path style="fill:#000000; fill-opacity:1.0000; 
stroke:#000000; stroke-width:0.0000; stroke-opacity:1; 
stroke-linecap:round; stroke-linejoin:round;fill-rule:evenodd;"
d="M 169.7500,90.3500
167.5500,90.3500
167.5500,88.1500
169.7500,88.1500
Z" /> 
</g>
<g >
</g>
<g style="fill:#000000; fill-opacity:1.0000; 
stroke:#000000; stroke-width:0.0000; stroke-opacity:1; 
stroke-linecap:round; stroke-linejoin:round;">
<path style="fill:#000000; fill-opacity:1.0000; 
stroke:#000000; stroke-width:0.0000; stroke-opacity:1; 
stroke-linecap:round; stroke-linejoin:round;fill-rule:evenodd;"
d="M 151.4150,98.6000
151.4150,96.7000
152.1150,96.7000
152.1150,98.6000
Z" /> 
<path style="fill:#000000; fill-opacity:1.0000; 
stroke:#000000; stroke-width:0.0000; stroke-opacity:1; 
stroke-linecap:round; stroke-linejoin:round;fill-rule:evenodd;"
d="M 150.1450,98.6000
150.1450,96.7000
150.8450,96.7000
150.8450,98.6000
Z" /> 
<path style="fill:#000000; fill-opacity:1.0000; 
stroke:#000000; stroke-width:0.0000; stroke-opacity:1; 
stroke-linecap:round; stroke-linejoin:round;fill-rule:evenodd;"
d="M 148.8750,98.6000
148.8750,96.7000
149.5750,96.7000
149.5750,98.6000
Z" /> 
<path style="fill:#000000; fill-opacity:1.0000; 
stroke:#000000; stroke-width:0.0000; stroke-opacity:1; 
stroke-linecap:round; stroke-linejoin:round;fill-rule:evenodd;"
d="M 147.6050,98.6000
147.6050,96.7000
148.3050,96.7000
148.3050,98.6000
Z" /> 
<path style="fill:#000000; fill-opacity:1.0000; 
stroke:#000000; stroke-width:0.0000; stroke-opacity:1; 
stroke-linecap:round; stroke-linejoin:round;fill-rule:evenodd;"
d="M 146.3350,98.6000
146.3350,96.7000
147.0350,96.7000
147.0350,98.6000
Z" /> 
<path style="fill:#000000; fill-opacity:1.0000; 
stroke:#000000; stroke-width:0.0000; stroke-opacity:1; 
stroke-linecap:round; stroke-linejoin:round;fill-rule:evenodd;"
d="M 145.0650,98.6000
145.0650,96.7000
145.7650,96.7000
145.7650,98.6000
Z" /> 
<path style="fill:#000000; fill-opacity:1.0000; 
stroke:#000000; stroke-width:0.0000; stroke-opacity:1; 
stroke-linecap:round; stroke-linejoin:round;fill-rule:evenodd;"
d="M 143.7950,98.6000
143.7950,96.7000
144.4950,96.7000
144.4950,98.6000
Z" /> 
<path style="fill:#000000; fill-opacity:1.0000; 
stroke:#000000; stroke-width:0.0000; stroke-opacity:1; 
stroke-linecap:round; stroke-linejoin:round;fill-rule:evenodd;"
d="M 142.5250,98.6000
142.5250,96.7000
143.2250,96.7000
143.2250,98.6000
Z" /> 
<path style="fill:#000000; fill-opacity:1.0000; 
stroke:#000000; stroke-width:0.0000; stroke-opacity:1; 
stroke-linecap:round; stroke-linejoin:round;fill-rule:evenodd;"
d="M 141.2550,98.6000
141.2550,96.7000
141.9550,96.7000
141.9550,98.6000
Z" /> 
<path style="fill:#000000; fill-opacity:1.0000; 
stroke:#000000; stroke-width:0.0000; stroke-opacity:1; 
stroke-linecap:round; stroke-linejoin:round;fill-rule:evenodd;"
d="M 139.9850,98.6000
139.9850,96.7000
140.6850,96.7000
140.6850,98.6000
Z" /> 
<path style="fill:#000000; fill-opacity:1.0000; 
stroke:#000000; stroke-width:0.0000; stroke-opacity:1; 
stroke-linecap:round; stroke-linejoin:round;fill-rule:evenodd;"
d="M 139.9850,89.0000
139.9850,87.1000
140.6850,87.1000
140.6850,89.0000
Z" /> 
<path style="fill:#000000; fill-opacity:1.0000; 
stroke:#000000; stroke-width:0.0000; stroke-opacity:1; 
stroke-linecap:round; stroke-linejoin:round;fill-rule:evenodd;"
d="M 141.2550,89.0000
141.2550,87.1000
141.9550,87.1000
141.9550,89.0000
Z" /> 
<path style="fill:#000000; fill-opacity:1.0000; 
stroke:#000000; stroke-width:0.0000; stroke-opacity:1; 
stroke-linecap:round; stroke-linejoin:round;fill-rule:evenodd;"
d="M 142.5250,89.0000
142.5250,87.1000
143.2250,87.1000
143.2250,89.0000
Z" /> 
<path style="fill:#000000; fill-opacity:1.0000; 
stroke:#000000; stroke-width:0.0000; stroke-opacity:1; 
stroke-linecap:round; stroke-linejoin:round;fill-rule:evenodd;"
d="M 143.7950,89.0000
143.7950,87.1000
144.4950,87.1000
144.4950,89.0000
Z" /> 
<path style="fill:#000000; fill-opacity:1.0000; 
stroke:#000000; stroke-width:0.0000; stroke-opacity:1; 
stroke-linecap:round; stroke-linejoin:round;fill-rule:evenodd;"
d="M 145.0650,89.0000
145.0650,87.1000
145.7650,87.1000
145.7650,89.0000
Z" /> 
<path style="fill:#000000; fill-opacity:1.0000; 
stroke:#000000; stroke-width:0.0000; stroke-opacity:1; 
stroke-linecap:round; stroke-linejoin:round;fill-rule:evenodd;"
d="M 146.3350,89.0000
146.3350,87.1000
147.0350,87.1000
147.0350,89.0000
Z" /> 
<path style="fill:#000000; fill-opacity:1.0000; 
stroke:#000000; stroke-width:0.0000; stroke-opacity:1; 
stroke-linecap:round; stroke-linejoin:round;fill-rule:evenodd;"
d="M 147.6050,89.0000
147.6050,87.1000
148.3050,87.1000
148.3050,89.0000
Z" /> 
<path style="fill:#000000; fill-opacity:1.0000; 
stroke:#000000; stroke-width:0.0000; stroke-opacity:1; 
stroke-linecap:round; stroke-linejoin:round;fill-rule:evenodd;"
d="M 148.8750,89.0000
148.8750,87.1000
149.5750,87.1000
149.5750,89.0000
Z" /> 
<path style="fill:#000000; fill-opacity:1.0000; 
stroke:#000000; stroke-width:0.0000; stroke-opacity:1; 
stroke-linecap:round; stroke-linejoin:round;fill-rule:evenodd;"
d="M 150.1450,89.0000
150.1450,87.1000
150.8450,87.1000
150.8450,89.0000
Z" /> 
<path style="fill:#000000; fill-opacity:1.0000; 
stroke:#000000; stroke-width:0.0000; stroke-opacity:1; 
stroke-linecap:round; stroke-linejoin:round;fill-rule:evenodd;"
d="M 151.4150,89.0000
151.4150,87.1000
152.1150,87.1000
152.1150,89.0000
Z" /> 
</g>
<g >
</g>
<g style="fill:#000000; fill-opacity:1.0000; 
stroke:#000000; stroke-width:0.0000; stroke-opacity:1; 
stroke-linecap:round; stroke-linejoin:round;">
<path style="fill:#000000; fill-opacity:1.0000; 
stroke:#000000; stroke-width:0.0000; stroke-opacity:1; 
stroke-linecap:round; stroke-linejoin:round;fill-rule:evenodd;"
d="M 134.0750,87.1000
134.0560,87.1957
134.0018,87.2768
133.9207,87.3310
133.8250,87.3500
133.3000,87.3500
133.2043,87.3310
133.1232,87.2768
133.0690,87.1957
133.0500,87.1000
133.0500,86.2000
133.0690,86.1043
133.1232,86.0232
133.2043,85.9690
133.3000,85.9500
133.8250,85.9500
133.9207,85.9690
134.0018,86.0232
134.0560,86.1043
134.0750,86.2000
Z" /> 
<path style="fill:#000000; fill-opacity:1.0000; 
stroke:#000000; stroke-width:0.0000; stroke-opacity:1; 
stroke-linecap:round; stroke-linejoin:round;fill-rule:evenodd;"
d="M 132.2500,87.1000
132.2310,87.1957
132.1768,87.2768
132.0957,87.3310
132.0000,87.3500
131.4750,87.3500
131.3793,87.3310
131.2982,87.2768
131.2440,87.1957
131.2250,87.1000
131.2250,86.2000
131.2440,86.1043
131.2982,86.0232
131.3793,85.9690
131.4750,85.9500
132.0000,85.9500
132.0957,85.9690
132.1768,86.0232
132.2310,86.1043
132.2500,86.2000
Z" /> 
</g>
<g >
</g>
<g style="fill:#000000; fill-opacity:1.0000; 
stroke:#000000; stroke-width:0.0000; stroke-opacity:1; 
stroke-linecap:round; stroke-linejoin:round;">
<path style="fill:#000000; fill-opacity:1.0000; 
stroke:#000000; stroke-width:0.0000; stroke-opacity:1; 
stroke-linecap:round; stroke-linejoin:round;fill-rule:evenodd;"
d="M 156.6000,90.2000
158.1000,90.2000
158.1000,92.2000
156.6000,92.2000
Z" /> 
<path style="fill:#000000; fill-opacity:1.0000; 
stroke:#000000; stroke-width:0.0000; stroke-opacity:1; 
stroke-linecap:round; stroke-linejoin:round;fill-rule:evenodd;"
d="M 158.9000,90.2000
160.4000,90.2000
160.4000,92.2000
158.9000,92.2000
Z" /> 
<path style="fill:#000000; fill-opacity:1.0000; 
stroke:#000000; stroke-width:0.0000; stroke-opacity:1; 
stroke-linecap:round; stroke-linejoin:round;fill-rule:evenodd;"
d="M 157.7500,96.5000
161.5500,96.5000
161.5500,98.5000
157.7500,98.5000
Z" /> 
<path style="fill:#000000; fill-opacity:1.0000; 
stroke:#000000; stroke-width:0.0000; stroke-opacity:1; 
stroke-linecap:round; stroke-linejoin:round;fill-rule:evenodd;"
d="M 161.2000,90.2000
162.7000,90.2000
162.7000,92.2000
161.2000,92.2000
Z" /> 
</g>
<g >
</g>
<g style="fill:#000000; fill-opacity:1.0000; 
stroke:#000000; stroke-width:0.0000; stroke-opacity:1; 
stroke-linecap:round; stroke-linejoin:round;">
<circle cx="146.1500" cy="90.3500" r="0.5000" /> 
</g>
<g style="fill:#000000; fill-opacity:1.0000; 
stroke:#000000; stroke-width:0.0212; stroke-opacity:1; 
stroke-linecap:round; stroke-linejoin:round;">
</g>
<g style="fill:#000000; fill-opacity:1.0000; 
stroke:#000000; stroke-width:0.0000; stroke-opacity:1; 
stroke-linecap:round; stroke-linejoin:round;">
<circle cx="152.4500" cy="94.8500" r="0.5000" /> 
</g>
<g style="fill:#000000; fill-opacity:1.0000; 
stroke:#000000; stroke-width:0.0212; stroke-opacity:1; 
stroke-linecap:round; stroke-linejoin:round;">
</g>
<g style="fill:#000000; fill-opacity:1.0000; 
stroke:#000000; stroke-width:0.0000; stroke-opacity:1; 
stroke-linecap:round; stroke-linejoin:round;">
<circle cx="145.4150" cy="95.0150" r="0.5000" /> 
</g>
<g style="fill:#000000; fill-opacity:1.0000; 
stroke:#000000; stroke-width:0.0212; stroke-opacity:1; 
stroke-linecap:round; stroke-linejoin:round;">
</g>
<g style="fill:#000000; fill-opacity:1.0000; 
stroke:#000000; stroke-width:0.0000; stroke-opacity:1; 
stroke-linecap:round; stroke-linejoin:round;">
<circle cx="141.6500" cy="95.4500" r="0.5000" /> 
</g>
<g style="fill:#000000; fill-opacity:1.0000; 
stroke:#000000; stroke-width:0.0212; stroke-opacity:1; 
stroke-linecap:round; stroke-linejoin:round;">
</g>
<g style="fill:#000000; fill-opacity:1.0000; 
stroke:#000000; stroke-width:0.0000; stroke-opacity:1; 
stroke-linecap:round; stroke-linejoin:round;">
<circle cx="137.7500" cy="99.3500" r="0.5000" /> 
</g>
<g style="fill:#000000; fill-opacity:1.0000; 
stroke:#000000; stroke-width:0.0212; stroke-opacity:1; 
stroke-linecap:round; stroke-linejoin:round;">
</g>
<g style="fill:#000000; fill-opacity:1.0000; 
stroke:#000000; stroke-width:0.0000; stroke-opacity:1; 
stroke-linecap:round; stroke-linejoin:round;">
<circle cx="150.4000" cy="90.3000" r="0.5000" /> 
</g>
<g style="fill:#000000; fill-opacity:1.0000; 
stroke:#000000; stroke-width:0.0212; stroke-opacity:1; 
stroke-linecap:round; stroke-linejoin:round;">
</g>
<g style="fill:#000000; fill-opacity:1.0000; 
stroke:#000000; stroke-width:0.0000; stroke-opacity:1; 
stroke-linecap:round; stroke-linejoin:round;">
<circle cx="142.1500" cy="90.0505" r="0.5000" /> 
</g>
<g style="fill:#000000; fill-opacity:1.0000; 
stroke:#000000; stroke-width:0.0212; stroke-opacity:1; 
stroke-linecap:round; stroke-linejoin:round;">
</g>
<g style="fill:#000000; fill-opacity:1.0000; 
stroke:#000000; stroke-width:0.0000; stroke-opacity:1; 
stroke-linecap:round; stroke-linejoin:round;">
<circle cx="141.9450" cy="93.4505" r="0.5000" /> 
</g>
<g style="fill:#000000; fill-opacity:1.0000; 
stroke:#000000; stroke-width:0.0212; stroke-opacity:1; 
stroke-linecap:round; stroke-linejoin:round;">
</g>
<g style="fill:#000000; fill-opacity:1.0000; 
stroke:#000000; stroke-width:0.0000; stroke-opacity:1; 
stroke-linecap:round; stroke-linejoin:round;">
<circle cx="144.1500" cy="89.9500" r="0.5000" /> 
</g>
<g style="fill:#000000; fill-opacity:1.0000; 
stroke:#000000; stroke-width:0.0212; stroke-opacity:1; 
stroke-linecap:round; stroke-linejoin:round;">
</g>
<g style="fill:#000000; fill-opacity:1.0000; 
stroke:#000000; stroke-width:0.0000; stroke-opacity:1; 
stroke-linecap:round; stroke-linejoin:round;">
<circle cx="130.1000" cy="90.0000" r="0.5000" /> 
</g>
<g style="fill:#000000; fill-opacity:1.0000; 
stroke:#000000; stroke-width:0.0212; stroke-opacity:1; 
stroke-linecap:round; stroke-linejoin:round;">
</g>
<g style="fill:#000000; fill-opacity:1.0000; 
stroke:#000000; stroke-width:0.0000; stroke-opacity:1; 
stroke-linecap:round; stroke-linejoin:round;">
<circle cx="147.9500" cy="89.9500" r="0.5000" /> 
</g>
<g style="fill:#000000; fill-opacity:1.0000; 
stroke:#000000; stroke-width:0.0212; stroke-opacity:1; 
stroke-linecap:round; stroke-linejoin:round;">
</g>
<g style="fill:#000000; fill-opacity:1.0000; 
stroke:#000000; stroke-width:0.0000; stroke-opacity:1; 
stroke-linecap:round; stroke-linejoin:round;">
<circle cx="139.2755" cy="94.2250" r="0.5000" /> 
</g>
<g style="fill:#000000; fill-opacity:1.0000; 
stroke:#000000; stroke-width:0.0212; stroke-opacity:1; 
stroke-linecap:round; stroke-linejoin:round;">
</g>
<g style="fill:#000000; fill-opacity:1.0000; 
stroke:#000000; stroke-width:0.0000; stroke-opacity:1; 
stroke-linecap:round; stroke-linejoin:round;">
<circle cx="147.0500" cy="93.2500" r="0.5000" /> 
</g>
<g style="fill:#000000; fill-opacity:1.0000; 
stroke:#000000; stroke-width:0.0212; stroke-opacity:1; 
stroke-linecap:round; stroke-linejoin:round;">
</g>
<g >
</g>
<g style="fill:#000000; fill-opacity:1.0000; 
stroke:#000000; stroke-width:0.0212; stroke-opacity:1; 
stroke-linecap:round; stroke-linejoin:round;">
</g>
<g style="fill:#000000; fill-opacity:1.0000; 
stroke:#000000; stroke-width:0.5000; stroke-opacity:1; 
stroke-linecap:round; stroke-linejoin:round;">
</g>
<g style="fill:#000000; fill-opacity:0.0; 
stroke:#000000; stroke-width:0.5000; stroke-opacity:1; 
stroke-linecap:round; stroke-linejoin:round;">
<path d="M160.7625 100.1500
L163.8500 100.1500
" />
<path d="M164.3500 99.6500
L164.3500 97.8500
" />
<path d="M163.8500 100.1500
L164.3500 99.6500
" />
</g>
<g style="fill:#000000; fill-opacity:0.0; 
stroke:#000000; stroke-width:1.0000; stroke-opacity:1; 
stroke-linecap:round; stroke-linejoin:round;">
<path d="M164.3500 96.6500
L164.3500 97.8500
" />
<path d="M168.6500 95.8900
L165.1100 95.8900
" />
<path d="M165.1100 95.8900
L164.3500 96.6500
" />
</g>
<g style="fill:#000000; fill-opacity:0.0; 
stroke:#000000; stroke-width:0.4000; stroke-opacity:1; 
stroke-linecap:round; stroke-linejoin:round;">
<path d="M152.4500 94.8500
L153.5000 95.9000
" />
<path d="M153.5000 95.9000
L154.5500 95.9000
" />
<path d="M149.2250 91.4750
L149.2250 97.6500
" />
<path d="M150.4000 90.3000
L149.2250 91.4750
" />
<path d="M152.6500 89.8500
L150.4950 92.0050
" />
<path d="M150.4950 92.0050
L150.4950 97.6500
" />
<path d="M154.5500 85.5500
L152.6500 87.4500
" />
<path d="M154.5500 84.1500
L154.5500 85.5500
" />
<path d="M153.9500 83.5500
L154.5500 84.1500
" />
<path d="M152.6500 87.4500
L152.6500 89.8500
" />
<path d="M143.9700 83.5500
L153.9500 83.5500
" />
<path d="M142.4100 85.1100
L143.9700 83.5500
" />
</g>
<g style="fill:#000000; fill-opacity:0.0; 
stroke:#000000; stroke-width:1.0000; stroke-opacity:1; 
stroke-linecap:round; stroke-linejoin:round;">
<path d="M162.9500 83.9500
L165.8900 83.9500
" />
<path d="M165.8900 83.9500
L168.6500 86.7100
" />
</g>
<g style="fill:#000000; fill-opacity:0.0; 
stroke:#000000; stroke-width:0.5000; stroke-opacity:1; 
stroke-linecap:round; stroke-linejoin:round;">
<path d="M133.3500 100.9500
L134.3500 101.9500
" />
<path d="M134.3500 101.9500
L160.3500 101.9500
" />
<path d="M160.3500 101.9500
L160.7625 101.5375
" />
<path d="M160.7625 101.5375
L160.7625 100.1500
" />
</g>
<g style="fill:#000000; fill-opacity:0.0; 
stroke:#000000; stroke-width:1.0000; stroke-opacity:1; 
stroke-linecap:round; stroke-linejoin:round;">
<path d="M159.6500 94.4500
L163.4500 94.4500
" />
<path d="M163.4500 94.4500
L164.5500 93.3500
" />
<path d="M164.5500 93.3500
L168.6500 93.3500
" />
</g>
<g style="fill:#000000; fill-opacity:0.0; 
stroke:#000000; stroke-width:0.4000; stroke-opacity:1; 
stroke-linecap:round; stroke-linejoin:round;">
<path d="M137.1250 94.2250
L136.0000 95.3500
" />
<path d="M139.2755 94.2250
L137.1250 94.2250
" />
<path d="M139.2755 94.2250
L140.9505 92.5500
" />
<path d="M140.9505 92.5500
L146.3500 92.5500
" />
<path d="M146.3500 92.5500
L147.0500 93.2500
" />
<path d="M141.6500 95.4500
L141.6050 95.4950
" />
<path d="M141.6050 95.4950
L141.6050 97.6500
" />
<path d="M145.4150 95.0150
L145.4150 97.6500
" />
</g>
<g style="fill:#000000; fill-opacity:0.0; 
stroke:#000000; stroke-width:0.5000; stroke-opacity:1; 
stroke-linecap:round; stroke-linejoin:round;">
<path d="M158.9375 100.1500
L158.9375 98.2125
" />
<path d="M158.9375 98.2125
L159.6500 97.5000
" />
<path d="M160.7500 100.1625
L160.7625 100.1500
" />
</g>
<g style="fill:#000000; fill-opacity:0.0; 
stroke:#000000; stroke-width:0.4000; stroke-opacity:1; 
stroke-linecap:round; stroke-linejoin:round;">
<path d="M142.1500 90.0505
L142.8750 89.3255
" />
<path d="M142.8750 89.3255
L142.8750 88.0500
" />
</g>
<g style="fill:#000000; fill-opacity:0.0; 
stroke:#000000; stroke-width:1.0000; stroke-opacity:1; 
stroke-linecap:round; stroke-linejoin:round;">
<path d="M161.9500 89.0500
L161.9500 88.7500
" />
<path d="M161.9500 88.7500
L161.5500 88.3500
" />
<path d="M161.5500 88.3500
L161.5500 86.3500
" />
<path d="M161.9500 91.2000
L161.9500 89.0500
" />
</g>
<g style="fill:#000000; fill-opacity:0.0; 
stroke:#000000; stroke-width:0.5000; stroke-opacity:1; 
stroke-linecap:round; stroke-linejoin:round;">
<path d="M154.5500 89.0000
L161.9000 89.0000
" />
<path d="M161.9000 89.0000
L161.9500 89.0500
" />
</g>
<g style="fill:#000000; fill-opacity:0.0; 
stroke:#000000; stroke-width:0.6000; stroke-opacity:1; 
stroke-linecap:round; stroke-linejoin:round;">
<path d="M159.6000 95.9000
L159.6500 95.8500
" />
</g>
<g style="fill:#000000; fill-opacity:0.0; 
stroke:#000000; stroke-width:0.3000; stroke-opacity:1; 
stroke-linecap:round; stroke-linejoin:round;">
<path d="M133.7250 88.0250
L133.7250 90.1875
" />
</g>
<g style="fill:#000000; fill-opacity:0.0; 
stroke:#000000; stroke-width:0.4000; stroke-opacity:1; 
stroke-linecap:round; stroke-linejoin:round;">
<path d="M146.1500 90.3500
L145.5500 90.9500
" />
</g>
<g style="fill:#000000; fill-opacity:0.0; 
stroke:#000000; stroke-width:0.6000; stroke-opacity:1; 
stroke-linecap:round; stroke-linejoin:round;">
<path d="M154.5500 95.9000
L159.6000 95.9000
" />
</g>
<g style="fill:#000000; fill-opacity:0.0; 
stroke:#000000; stroke-width:0.4000; stroke-opacity:1; 
stroke-linecap:round; stroke-linejoin:round;">
<path d="M134.5125 90.1875
L133.7250 90.1875
" />
<path d="M145.5500 90.9500
L140.5500 90.9500
" />
<path d="M140.5500 90.9500
L138.5500 88.9500
" />
</g>
<g style="fill:#000000; fill-opacity:0.0; 
stroke:#000000; stroke-width:0.3000; stroke-opacity:1; 
stroke-linecap:round; stroke-linejoin:round;">
<path d="M133.5625 87.8625
L133.7250 88.0250
" />
</g>
<g style="fill:#000000; fill-opacity:0.0; 
stroke:#000000; stroke-width:1.0000; stroke-opacity:1; 
stroke-linecap:round; stroke-linejoin:round;">
<path d="M159.6500 91.2000
L159.6500 94.4500
" />
</g>
<g style="fill:#000000; fill-opacity:0.0; 
stroke:#000000; stroke-width:0.4000; stroke-opacity:1; 
stroke-linecap:round; stroke-linejoin:round;">
<path d="M146.6850 89.8150
L146.6850 88.0500
" />
</g>
<g style="fill:#000000; fill-opacity:0.0; 
stroke:#000000; stroke-width:0.7000; stroke-opacity:1; 
stroke-linecap:round; stroke-linejoin:round;">
<path d="M133.5625 86.6500
L133.5625 84.5500
" />
</g>
<g style="fill:#000000; fill-opacity:0.0; 
stroke:#000000; stroke-width:0.4000; stroke-opacity:1; 
stroke-linecap:round; stroke-linejoin:round;">
<path d="M135.7500 88.9500
L134.5125 90.1875
" />
<path d="M138.5500 88.9500
L135.7500 88.9500
" />
</g>
<g style="fill:#000000; fill-opacity:0.0; 
stroke:#000000; stroke-width:0.3000; stroke-opacity:1; 
stroke-linecap:round; stroke-linejoin:round;">
<path d="M133.5625 86.6500
L133.5625 87.8625
" />
</g>
<g style="fill:#000000; fill-opacity:0.0; 
stroke:#000000; stroke-width:1.0000; stroke-opacity:1; 
stroke-linecap:round; stroke-linejoin:round;">
<path d="M159.6500 94.4500
L159.6500 95.8500
" />
<path d="M159.6500 95.8500
L159.6500 97.5000
" />
</g>
<g style="fill:#000000; fill-opacity:0.0; 
stroke:#000000; stroke-width:0.4000; stroke-opacity:1; 
stroke-linecap:round; stroke-linejoin:round;">
<path d="M146.1500 90.3500
L146.6850 89.8150
" />
</g>
<g style="fill:#000000; fill-opacity:0.0; 
stroke:#000000; stroke-width:0.5000; stroke-opacity:1; 
stroke-linecap:round; stroke-linejoin:round;">
<path d="M129.5500 94.8625
L129.5500 96.7125
" />
</g>
<g style="fill:#000000; fill-opacity:0.0; 
stroke:#000000; stroke-width:0.6000; stroke-opacity:1; 
stroke-linecap:round; stroke-linejoin:round;">
<path d="M162.9500 83.9500
L159.9500 83.9500
" />
<path d="M159.9500 83.9500
L157.5500 86.3500
" />
</g>
<g style="fill:#000000; fill-opacity:0.0; 
stroke:#000000; stroke-width:0.4000; stroke-opacity:1; 
stroke-linecap:round; stroke-linejoin:round;">
<path d="M142.4100 100.3500
L143.5720 99.1880
" />
<path d="M143.5720 99.1880
L146.3120 99.1880
" />
<path d="M146.3120 99.1880
L146.6850 98.8150
" />
<path d="M146.6850 98.8150
L146.6850 97.6500
" />
</g>
<g style="fill:#000000; fill-opacity:0.0; 
stroke:#000000; stroke-width:0.5000; stroke-opacity:1; 
stroke-linecap:round; stroke-linejoin:round;">
<path d="M147.4900 99.4100
L147.4900 100.3500
" />
<path d="M147.9550 98.9450
L147.4900 99.4100
" />
<path d="M147.9550 97.6500
L147.9550 98.9450
" />
</g>
<g style="fill:#000000; fill-opacity:0.0; 
stroke:#000000; stroke-width:0.4000; stroke-opacity:1; 
stroke-linecap:round; stroke-linejoin:round;">
<path d="M142.2050 99.1500
L137.9500 99.1500
" />
<path d="M137.9500 99.1500
L137.7500 99.3500
" />
<path d="M142.8750 98.4800
L142.2050 99.1500
" />
<path d="M142.8750 97.6500
L142.8750 98.4800
" />
<path d="M144.9500 86.3500
L146.2500 86.3500
" />
<path d="M146.2500 86.3500
L147.4900 85.1100
" />
<path d="M144.1450 87.1550
L144.9500 86.3500
" />
<path d="M144.1450 88.0500
L144.1450 87.1550
" />
</g>
<g style="fill:#000000; fill-opacity:0.0; 
stroke:#000000; stroke-width:0.5000; stroke-opacity:1; 
stroke-linecap:round; stroke-linejoin:round;">
<path d="M142.4005 93.4505
L144.1450 95.1950
" />
<path d="M144.1450 95.1950
L144.1450 97.6500
" />
<path d="M141.9450 93.4505
L142.4005 93.4505
" />
</g>
<g style="fill:#000000; fill-opacity:0.0; 
stroke:#000000; stroke-width:0.4000; stroke-opacity:1; 
stroke-linecap:round; stroke-linejoin:round;">
<path d="M145.4150 88.6850
L145.4150 88.0500
" />
<path d="M144.1500 89.9500
L145.4150 88.6850
" />
</g>
<g style="fill:#000000; fill-opacity:0.0; 
stroke:#000000; stroke-width:0.3000; stroke-opacity:1; 
stroke-linecap:round; stroke-linejoin:round;">
<path d="M133.0750 95.9125
L133.0750 100.6750
" />
<path d="M133.0750 100.6750
L133.3500 100.9500
" />
</g>
<g style="fill:#000000; fill-opacity:0.0; 
stroke:#000000; stroke-width:0.4000; stroke-opacity:1; 
stroke-linecap:round; stroke-linejoin:round;">
<path d="M131.3375 93.0375
L131.3500 93.0500
" />
<path d="M129.5500 93.0375
L131.3375 93.0375
" />
</g>
<g style="fill:#000000; fill-opacity:0.0; 
stroke:#000000; stroke-width:0.3000; stroke-opacity:1; 
stroke-linecap:round; stroke-linejoin:round;">
<path d="M132.4250 92.6750
L132.0500 93.0500
" />
<path d="M132.0500 93.0500
L131.3500 93.0500
" />
<path d="M132.4250 90.1875
L132.4250 92.6750
" />
</g>
<g style="fill:#000000; fill-opacity:0.0; 
stroke:#000000; stroke-width:0.5000; stroke-opacity:1; 
stroke-linecap:round; stroke-linejoin:round;">
<path d="M147.9500 89.9500
L147.9550 89.9450
" />
</g>
<g style="fill:#000000; fill-opacity:0.0; 
stroke:#000000; stroke-width:0.4000; stroke-opacity:1; 
stroke-linecap:round; stroke-linejoin:round;">
<path d="M130.1000 90.0000
L130.2875 90.1875
" />
</g>
<g style="fill:#000000; fill-opacity:0.0; 
stroke:#000000; stroke-width:0.5000; stroke-opacity:1; 
stroke-linecap:round; stroke-linejoin:round;">
<path d="M130.0500 89.9500
L130.0500 85.4500
" />
<path d="M147.9550 89.9450
L147.9550 88.0500
" />
</g>
<g style="fill:#000000; fill-opacity:0.0; 
stroke:#000000; stroke-width:0.4000; stroke-opacity:1; 
stroke-linecap:round; stroke-linejoin:round;">
<path d="M130.2875 90.1875
L131.7750 90.1875
" />
</g>
<g style="fill:#000000; fill-opacity:0.0; 
stroke:#000000; stroke-width:0.5000; stroke-opacity:1; 
stroke-linecap:round; stroke-linejoin:round;">
<path d="M130.9500 84.5500
L131.7375 84.5500
" />
</g>
<g style="fill:#000000; fill-opacity:0.0; 
stroke:#000000; stroke-width:0.4000; stroke-opacity:1; 
stroke-linecap:round; stroke-linejoin:round;">
<path d="M130.1000 90.0000
L130.0500 89.9500
" />
</g>
<g style="fill:#000000; fill-opacity:0.0; 
stroke:#000000; stroke-width:0.5000; stroke-opacity:1; 
stroke-linecap:round; stroke-linejoin:round;">
<path d="M130.0500 85.4500
L130.9500 84.5500
" />
</g>
<g style="fill:#000000; fill-opacity:0.0; 
stroke:#000000; stroke-width:0.4000; stroke-opacity:1; 
stroke-linecap:round; stroke-linejoin:round;">
<path d="M149.2250 90.3750
L149.2250 88.0500
" />
<path d="M147.8500 91.7500
L149.2250 90.3750
" />
<path d="M131.7375 87.5375
L131.7375 86.6500
" />
<path d="M138.4500 90.0500
L140.1500 91.7500
" />
</g>
<g style="fill:#000000; fill-opacity:0.0; 
stroke:#000000; stroke-width:0.3000; stroke-opacity:1; 
stroke-linecap:round; stroke-linejoin:round;">
<path d="M133.4500 92.0500
L134.0500 92.0500
" />
</g>
<g style="fill:#000000; fill-opacity:0.0; 
stroke:#000000; stroke-width:0.4000; stroke-opacity:1; 
stroke-linecap:round; stroke-linejoin:round;">
<path d="M136.0000 90.9000
L136.8500 90.0500
" />
<path d="M132.6500 88.4500
L131.7375 87.5375
" />
<path d="M136.0000 92.0500
L134.0500 92.0500
" />
<path d="M140.1500 91.7500
L147.8500 91.7500
" />
</g>
<g style="fill:#000000; fill-opacity:0.0; 
stroke:#000000; stroke-width:0.3000; stroke-opacity:1; 
stroke-linecap:round; stroke-linejoin:round;">
<path d="M133.0750 90.1875
L133.0750 91.6750
" />
<path d="M133.0750 88.8750
L132.6500 88.4500
" />
<path d="M133.0750 90.1875
L133.0750 88.8750
" />
</g>
<g style="fill:#000000; fill-opacity:0.0; 
stroke:#000000; stroke-width:0.4000; stroke-opacity:1; 
stroke-linecap:round; stroke-linejoin:round;">
<path d="M136.8500 90.0500
L138.4500 90.0500
" />
</g>
<g style="fill:#000000; fill-opacity:0.0; 
stroke:#000000; stroke-width:0.3000; stroke-opacity:1; 
stroke-linecap:round; stroke-linejoin:round;">
<path d="M133.0750 91.6750
L133.4500 92.0500
" />
</g>
<g style="fill:#000000; fill-opacity:0.0; 
stroke:#000000; stroke-width:0.4000; stroke-opacity:1; 
stroke-linecap:round; stroke-linejoin:round;">
<path d="M136.0000 92.0500
L136.0000 90.9000
" />
</g>
<g >
</g>
<g style="fill:#000000; fill-opacity:0.0; 
stroke:#000000; stroke-width:0.4000; stroke-opacity:1; 
stroke-linecap:round; stroke-linejoin:round;">
<g >
</g>
<g style="fill:#000000; fill-opacity:1.0000; 
stroke:#000000; stroke-width:0.0000; stroke-opacity:1; 
stroke-linecap:round; stroke-linejoin:round;">
<path style="fill:#000000; fill-opacity:1.0000; 
stroke:#000000; stroke-width:0.0000; stroke-opacity:1; 
stroke-linecap:round; stroke-linejoin:round;fill-rule:evenodd;"
d="M 171.7478,82.1702
171.7936,82.2230
171.8043,82.2637
171.8149,82.3854
171.8149,82.3854
171.8761,82.6137
171.8761,82.6137
171.8761,82.6137
171.9260,82.7207
171.9760,82.8278
171.9760,82.8278
172.1115,83.0214
172.2786,83.1885
172.4722,83.3240
172.4722,83.3240
172.6863,83.4239
172.9146,83.4851
173.0344,83.4955
173.0363,83.4957
173.1014,83.5212
173.1424,83.5778
173.1495,83.6192
173.1495,101.7808
173.1298,101.8478
173.0770,101.8936
173.0363,101.9043
172.9146,101.9149
172.9146,101.9149
172.6863,101.9761
172.6863,101.9761
172.4722,102.0760
172.4722,102.0760
172.2786,102.2115
172.1115,102.3786
172.1115,102.3786
171.9760,102.5722
171.9760,102.5722
171.8761,102.7863
171.8761,102.7863
171.8149,103.0146
171.8149,103.0146
171.8043,103.1363
171.7788,103.2014
171.7222,103.2424
171.6808,103.2495
127.0745,103.2495
127.0075,103.2298
126.9617,103.1770
126.9505,103.1255
126.9505,98.8375
128.5000,98.8375
128.5000,98.8702
128.5153,98.9862
128.5153,98.9863
128.5751,99.1307
128.5751,99.1307
128.6703,99.2547
128.7943,99.3499
128.9387,99.4097
128.9388,99.4097
129.0548,99.4250
129.3000,99.4250
129.3000,99.4250
129.3000,98.8375
129.8000,98.8375
129.8000,99.4250
130.0452,99.4250
130.1612,99.4097
130.1613,99.4097
130.3057,99.3499
130.3057,99.3499
130.4297,99.2547
130.5249,99.1307
130.5249,99.1307
130.5847,98.9863
130.5847,98.9862
130.6000,98.8702
130.6000,98.8702
130.6000,98.8375
129.8000,98.8375
129.3000,98.8375
128.5000,98.8375
126.9505,98.8375
126.9505,96.9952
128.4995,96.9952
128.4995,96.9952
128.5148,97.1114
128.5148,97.1114
128.5747,97.2559
128.5747,97.2559
128.5747,97.2559
128.6699,97.3801
128.7941,97.4753
128.9386,97.5352
128.9386,97.5352
128.9398,97.5357
128.9942,97.5795
129.0163,97.6458
128.9990,97.7135
128.9479,97.7612
128.9398,97.7648
128.7943,97.8251
128.6703,97.9203
128.5751,98.0443
128.5751,98.0443
128.5153,98.1887
128.5153,98.1888
128.5000,98.3048
128.5000,98.3048
128.5000,98.3375
130.6000,98.3375
130.6000,98.3048
130.5847,98.1888
130.5847,98.1887
130.5249,98.0443
130.5249,98.0443
130.4297,97.9203
130.3057,97.8251
130.1602,97.7648
130.1058,97.7210
130.0837,97.6547
130.1010,97.5870
130.1521,97.5394
130.1602,97.5357
130.1614,97.5352
130.1614,97.5352
130.3059,97.4753
130.4301,97.3801
130.5253,97.2559
130.5852,97.1114
130.6005,96.9952
130.6005,96.4298
130.5852,96.3136
130.5253,96.1691
130.4819,96.1125
131.2250,96.1125
131.2250,96.6042
131.2279,96.6346
131.2727,96.7626
131.3532,96.8718
131.4624,96.9523
131.5750,96.9918
131.5750,96.1125
131.2250,96.1125
130.4819,96.1125
130.4301,96.0449
130.3059,95.9497
130.2482,95.9257
130.2270,95.9170
130.1726,95.8732
130.1506,95.8069
130.1505,95.8024
130.1505,95.7955
130.1702,95.7285
130.1886,95.7125
131.2250,95.7125
131.5750,95.7125
131.5750,94.8332
131.5750,94.8332
131.4624,94.8727
131.3532,94.9532
131.2727,95.0624
131.2278,95.1904
131.2278,95.1904
131.2250,95.2208
131.2250,95.7125
130.1886,95.7125
130.2230,95.6827
130.2270,95.6809
130.3028,95.6495
130.4283,95.5533
130.5245,95.4278
130.5850,95.2818
130.6005,95.1644
130.6005,94.5606
130.6005,94.5606
130.6005,94.5606
130.5850,94.4432
130.5850,94.4432
130.5850,94.4432
130.5245,94.2972
130.4283,94.1717
130.3028,94.0755
130.3028,94.0755
130.3028,94.0755
130.2765,94.0646
130.2221,94.0207
130.2001,93.9544
130.2173,93.8867
130.2685,93.8391
130.2765,93.8354
130.2812,93.8335
130.3028,93.8245
130.4283,93.7283
130.4987,93.6365
130.5551,93.5953
130.5971,93.5880
131.1958,93.5880
131.2099,93.5897
131.2100,93.5890
131.2184,93.5899
131.2184,93.5899
131.3690,93.6054
131.4850,93.5854
131.5181,93.5796
131.5181,93.5796
131.5181,93.5796
131.5541,93.5625
131.6074,93.5505
131.9829,93.5505
132.0092,93.5533
132.0139,93.5544
132.0657,93.5507
132.0701,93.5505
132.0858,93.5505
132.1013,93.5483
132.1057,93.5478
132.1575,93.5441
132.1620,93.5424
132.1877,93.5358
132.1925,93.5352
132.2396,93.5136
132.2437,93.5119
132.2726,93.5011
132.2923,93.4938
132.2923,93.4938
132.2923,93.4938
132.2962,93.4909
132.3190,93.4774
132.3234,93.4754
132.3626,93.4414
132.3660,93.4386
132.3689,93.4365
132.3786,93.4292
132.3897,93.4181
132.3929,93.4151
132.4321,93.3811
132.4348,93.3771
132.4514,93.3564
132.7314,93.0764
132.7521,93.0598
132.7561,93.0571
132.7901,93.0179
132.7931,93.0147
132.8042,93.0036
132.8136,92.9910
132.8164,92.9876
132.8504,92.9484
132.8524,92.9440
132.8659,92.9212
132.8688,92.9173
132.8745,92.9022
132.8869,92.8687
132.8886,92.8646
132.9102,92.8175
132.9108,92.8127
132.9174,92.7870
132.9191,92.7825
132.9228,92.7307
132.9233,92.7263
132.9255,92.7108
132.9255,92.6951
132.9257,92.6907
132.9263,92.6816
132.9294,92.6389
132.9283,92.6342
132.9255,92.6079
132.9255,92.5303
132.9452,92.4632
132.9980,92.4175
133.0671,92.4075
133.1238,92.4310
133.1340,92.4386
133.1374,92.4414
133.1766,92.4754
133.1810,92.4774
133.2038,92.4909
133.2077,92.4938
133.2563,92.5119
133.2604,92.5136
133.2738,92.5198
133.3075,92.5352
133.3075,92.5352
133.3075,92.5352
133.3123,92.5358
133.3380,92.5424
133.3425,92.5441
133.3943,92.5478
133.3987,92.5483
133.4142,92.5505
133.4299,92.5505
133.4343,92.5507
133.4861,92.5544
133.4908,92.5533
133.5171,92.5505
133.7817,92.5505
133.8201,92.5585
133.8205,92.5574
133.8286,92.5597
133.8286,92.5597
133.9743,92.6005
135.0484,92.6005
135.1155,92.6202
135.1612,92.6730
135.1630,92.6770
135.2123,92.7962
135.2255,92.8278
135.3217,92.9533
135.4472,93.0495
135.5932,93.1100
135.7106,93.1255
136.2894,93.1255
136.2894,93.1255
136.4068,93.1100
136.4068,93.1100
136.4068,93.1100
136.5528,93.0495
136.6783,92.9533
136.7745,92.8278
136.8350,92.6818
136.8350,92.6818
136.8357,92.6802
136.8795,92.6257
136.9458,92.6037
137.0135,92.6210
137.0612,92.6721
137.0648,92.6802
137.1259,92.8276
137.2221,92.9529
137.3474,93.0491
137.4934,93.1096
137.4934,93.1096
137.6107,93.1250
137.6500,93.1250
137.6500,92.3000
138.1500,92.3000
138.1500,93.1250
138.1893,93.1250
138.3066,93.1096
138.3066,93.1096
138.4526,93.0491
138.5779,92.9529
138.6741,92.8276
138.7346,92.6816
138.7346,92.6816
138.7500,92.5643
138.7500,92.5643
138.7500,92.3000
138.1500,92.3000
137.6500,92.3000
137.6500,90.9750
137.6107,90.9750
137.4934,90.9904
137.4934,90.9904
137.3474,91.0509
137.2221,91.1471
137.1259,91.2724
137.0648,91.4198
137.0210,91.4742
136.9547,91.4963
136.8870,91.4790
136.8394,91.4279
136.8357,91.4198
136.7888,91.3066
136.7745,91.2722
136.7745,91.2722
136.7745,91.2722
136.6809,91.1501
136.6557,91.0849
136.6697,91.0165
136.6916,90.9869
137.0417,90.6368
137.1030,90.6033
137.1294,90.6005
138.1706,90.6005
138.2377,90.6202
138.2583,90.6368
138.3999,90.7784
138.4334,90.8398
138.4284,90.9094
138.3865,90.9654
138.3211,90.9898
138.2960,90.9890
138.1893,90.9750
138.1893,90.9750
138.1500,90.9750
138.1500,91.8000
138.7500,91.8000
138.7500,91.5357
138.7360,91.4290
138.7467,91.3599
138.7931,91.3077
138.8604,91.2888
138.9272,91.3093
138.9466,91.3251
139.7541,92.1326
139.7993,92.1810
139.8371,92.2040
139.8424,92.2076
139.8777,92.2344
139.8944,92.2409
139.9133,92.2504
139.9286,92.2597
139.9712,92.2716
139.9773,92.2736
139.9831,92.2759
140.0184,92.2899
140.0363,92.2917
140.0571,92.2957
140.0743,92.3005
140.1186,92.3005
140.1249,92.3008
140.1326,92.3016
140.1342,92.3018
140.1988,92.3282
140.2390,92.3854
140.2418,92.4552
140.2092,92.5128
139.3838,93.3382
139.3225,93.3717
139.2961,93.3745
139.1861,93.3745
139.1555,93.3810
139.0112,93.4117
139.0112,93.4117
138.8479,93.4844
138.7033,93.5895
138.6637,93.6335
138.6042,93.6701
138.5715,93.6745
137.1344,93.6745
137.0682,93.6722
137.0682,93.6722
137.0682,93.6722
137.0252,93.6827
137.0189,93.6839
136.9751,93.6899
136.9586,93.6971
136.9386,93.7038
136.9211,93.7081
136.9211,93.7081
136.8826,93.7298
136.8769,93.7326
136.8363,93.7502
136.8224,93.7615
136.8049,93.7734
136.7892,93.7822
136.7892,93.7822
136.7579,93.8135
136.7532,93.8178
136.7189,93.8457
136.7085,93.8604
136.6949,93.8766
136.3333,94.2382
136.2720,94.2717
136.2456,94.2745
135.7106,94.2745
135.5932,94.2900
135.5932,94.2900
135.4472,94.3505
135.3217,94.4467
135.2255,94.5722
135.1650,94.7182
135.1650,94.7182
135.1495,94.8356
135.1495,94.8356
135.1495,95.8644
135.1650,95.9818
135.1650,95.9818
135.2191,96.1125
135.2255,96.1278
135.3217,96.2533
135.4472,96.3495
135.5932,96.4100
135.7106,96.4255
136.2894,96.4255
136.2894,96.4255
136.4068,96.4100
136.4068,96.4100
136.4068,96.4100
136.5528,96.3495
136.6783,96.2533
136.7745,96.1278
136.8350,95.9818
136.8350,95.9818
136.8357,95.9802
136.8795,95.9257
136.9458,95.9037
137.0135,95.9210
137.0612,95.9721
137.0648,95.9802
137.1259,96.1276
137.2221,96.2529
137.3474,96.3491
137.4934,96.4096
137.4934,96.4096
137.6107,96.4250
137.6500,96.4250
137.6500,95.6000
138.1500,95.6000
138.1500,96.4250
138.1893,96.4250
138.3066,96.4096
138.3066,96.4096
138.4526,96.3491
138.5779,96.2529
138.6741,96.1276
138.7346,95.9816
138.7346,95.9816
138.7500,95.8643
138.7500,95.8643
138.7500,95.6000
138.1500,95.6000
137.6500,95.6000
137.6500,95.2240
137.6697,95.1570
137.7225,95.1112
137.7740,95.1000
138.7500,95.1000
138.7554,95.0946
138.7697,95.0459
138.8225,95.0002
138.8916,94.9902
138.9244,94.9997
139.0112,95.0383
139.0112,95.0383
139.0112,95.0383
139.0638,95.0495
139.1861,95.0755
139.1861,95.0755
139.3649,95.0755
139.3649,95.0755
139.5398,95.0383
139.7031,94.9656
139.8477,94.8605
139.8701,94.8356
139.8850,94.8192
139.9674,94.7277
140.0567,94.5728
140.1120,94.4028
140.1307,94.2250
140.1296,94.2145
140.1421,94.1457
140.1652,94.1138
140.8811,93.3979
140.9425,93.3644
141.0122,93.3694
141.0681,93.4113
141.0921,93.4726
141.0944,93.4938
141.1085,93.6283
141.1085,93.6283
141.1085,93.6283
141.1637,93.7983
141.1637,93.7983
141.2531,93.9532
141.2771,93.9798
141.3728,94.0860
141.3728,94.0860
141.3728,94.0860
141.5174,94.1911
141.6807,94.2638
141.8556,94.3010
141.8556,94.3010
142.0344,94.3010
142.0344,94.3010
142.2093,94.2638
142.2389,94.2506
142.3081,94.2414
142.3714,94.2710
142.3770,94.2762
143.5082,95.4074
143.5417,95.4687
143.5445,95.4951
143.5445,96.2674
143.5248,96.3344
143.4720,96.3802
143.4029,96.3901
143.3660,96.3788
143.3264,96.3594
143.2583,96.3495
143.2583,96.3495
142.4917,96.3495
142.4917,96.3495
142.4236,96.3594
142.4236,96.3594
142.3340,96.4033
142.2651,96.4150
142.2008,96.3877
142.1615,96.3299
142.1555,96.2919
142.1555,96.1972
142.1752,96.1302
142.2066,96.0969
142.2082,96.0957
142.2222,96.0855
142.3419,95.9527
142.4313,95.7978
142.4865,95.6278
142.5052,95.4500
142.4865,95.2722
142.4524,95.1672
142.4313,95.1022
142.4312,95.1022
142.4300,95.1000
142.3419,94.9473
142.2746,94.8727
142.2222,94.8145
142.2222,94.8145
142.2222,94.8145
142.2222,94.8145
142.0776,94.7094
141.9143,94.6367
141.9143,94.6367
141.7866,94.6095
141.7394,94.5995
141.5606,94.5995
141.5300,94.6060
141.3857,94.6367
141.3857,94.6367
141.2224,94.7094
141.0778,94.8145
140.9581,94.9473
140.8688,95.1022
140.8687,95.1022
140.8135,95.2722
140.8135,95.2722
140.7948,95.4500
140.8135,95.6278
140.8135,95.6278
140.8687,95.7978
140.8688,95.7978
140.9581,95.9527
141.0209,96.0224
141.0226,96.0243
141.0529,96.0873
141.0545,96.1073
141.0545,96.2919
141.0348,96.3589
140.9820,96.4046
140.9129,96.4146
140.8760,96.4033
140.7864,96.3594
140.7183,96.3495
140.7183,96.3495
139.9517,96.3495
139.9517,96.3495
139.8836,96.3594
139.7785,96.4108
139.6958,96.4935
139.6444,96.5986
139.6345,96.6667
139.6345,98.4755
139.6148,98.5425
139.5620,98.5883
139.5105,98.5995
138.1817,98.5995
138.1313,98.5888
138.0143,98.5367
138.0143,98.5367
137.8757,98.5072
137.8394,98.4995
137.6606,98.4995
137.6479,98.5022
137.4857,98.5367
137.4857,98.5367
137.3224,98.6094
137.1778,98.7145
137.0581,98.8473
136.9688,99.0022
136.9687,99.0022
136.9135,99.1722
136.9135,99.1722
136.8948,99.3500
136.9135,99.5278
136.9135,99.5278
136.9687,99.6978
136.9688,99.6978
137.0581,99.8527
137.0828,99.8800
137.1778,99.9855
137.1778,99.9855
137.1778,99.9855
137.3224,100.0906
137.4857,100.1633
137.6606,100.2005
137.6606,100.2005
137.8394,100.2005
137.8394,100.2005
138.0143,100.1633
138.1776,100.0906
138.3222,99.9855
138.4419,99.8527
138.4879,99.7730
138.4939,99.7625
138.5445,99.7143
138.6013,99.7005
138.7504,99.7005
138.8174,99.7202
138.8631,99.7730
138.8731,99.8421
138.8614,99.8798
138.8282,99.9464
138.7718,100.1447
138.7527,100.3500
138.7718,100.5553
138.8282,100.7536
138.9201,100.9382
139.0443,101.1027
139.0785,101.1339
139.1148,101.1936
139.1130,101.2634
139.0738,101.3212
139.0095,101.3486
138.9950,101.3495
134.6501,101.3495
134.5831,101.3298
134.5624,101.3132
133.7468,100.4976
133.7468,100.4975
133.6528,100.4255
133.6528,100.4255
133.6520,100.4251
133.6515,100.4247
133.6458,100.4214
133.6463,100.4205
133.5976,100.3813
133.5756,100.3150
133.5755,100.3106
133.5755,97.1245
133.5952,97.0575
133.6480,97.0117
133.6995,97.0005
133.8793,97.0005
133.9097,96.9976
133.9097,96.9976
133.9790,96.9734
134.0379,96.9528
134.1471,96.8721
134.2278,96.7629
134.2502,96.6988
134.2726,96.6347
134.2726,96.6347
134.2755,96.6043
134.2755,95.2207
134.2726,95.1903
134.2726,95.1903
134.2367,95.0877
134.2278,95.0621
134.1471,94.9528
134.0379,94.8722
134.0379,94.8722
133.9097,94.8274
133.8793,94.8245
133.8793,94.8245
133.5707,94.8245
133.5707,94.8245
133.5403,94.8274
133.4410,94.8621
133.3712,94.8657
133.3590,94.8621
133.2597,94.8274
133.2597,94.8274
133.2293,94.8245
133.2293,94.8245
132.9207,94.8245
132.9207,94.8245
132.8903,94.8274
132.7910,94.8621
132.7212,94.8657
132.7090,94.8621
132.6097,94.8274
132.6097,94.8274
132.5793,94.8245
132.5793,94.8245
132.2707,94.8245
132.2707,94.8245
132.2403,94.8274
132.1402,94.8624
132.0704,94.8659
132.0583,94.8624
131.9750,94.8332
131.9750,94.9498
131.9553,95.0168
131.9508,95.0234
131.9222,95.0621
131.8774,95.1903
131.8745,95.2207
131.8745,96.6043
131.8774,96.6347
131.8774,96.6347
131.9179,96.7505
131.9222,96.7629
131.9508,96.8016
131.9747,96.8672
131.9750,96.8752
131.9750,96.9918
132.0583,96.9626
132.1281,96.9591
132.1402,96.9626
132.2403,96.9976
132.2504,96.9986
132.2707,97.0005
132.2707,97.0005
132.4505,97.0005
132.5175,97.0202
132.5633,97.0730
132.5745,97.1245
132.5745,100.6079
132.5717,100.6342
132.5706,100.6389
132.5706,100.6389
132.5706,100.6389
132.5743,100.6907
132.5745,100.6951
132.5745,100.7108
132.5767,100.7263
132.5772,100.7307
132.5809,100.7825
132.5826,100.7870
132.5891,100.8127
132.5898,100.8175
132.5898,100.8175
132.6114,100.8646
132.6131,100.8687
132.6312,100.9173
132.6341,100.9212
132.6476,100.9440
132.6496,100.9484
132.6496,100.9484
132.6496,100.9484
132.6836,100.9876
132.6864,100.9910
132.6958,101.0036
132.7069,101.0147
132.7099,101.0179
132.7189,101.0283
132.7367,101.0488
132.7599,101.0997
132.7629,101.0989
132.7650,101.1068
132.8255,101.2528
132.8255,101.2528
132.8975,101.3468
132.8976,101.3468
133.2450,101.6943
133.8947,102.3439
133.9000,102.3500
133.9092,102.3620
133.9217,102.3783
134.0472,102.4745
134.1932,102.5350
134.1932,102.5350
134.3500,102.5557
134.3500,102.5557
134.3853,102.5510
134.3934,102.5505
160.3066,102.5505
160.3147,102.5510
160.3500,102.5557
160.3500,102.5557
160.4023,102.5488
160.5068,102.5350
160.6528,102.4745
160.6528,102.4745
160.6904,102.4590
160.7140,102.4276
160.7783,102.3783
160.8000,102.3500
160.8053,102.3439
161.1564,101.9928
161.1625,101.9875
161.1908,101.9658
161.2870,101.8403
161.3475,101.6943
161.3630,101.5769
161.3682,101.5375
161.3635,101.5022
161.3630,101.4941
161.3630,101.3132
161.3630,101.1587
161.3827,101.0917
161.4115,101.0603
161.4533,101.0283
161.5495,100.9028
161.5809,100.8270
161.6248,100.7726
161.6911,100.7506
161.6955,100.7505
163.8066,100.7505
163.8147,100.7510
163.8500,100.7557
163.8500,100.7557
163.9023,100.7488
164.0068,100.7350
164.1528,100.6745
164.1786,100.6548
164.2783,100.5783
164.3000,100.5500
164.3053,100.5439
164.7439,100.1053
164.7500,100.1000
164.7783,100.0783
164.8745,99.9528
164.9350,99.8068
164.9505,99.6894
164.9557,99.6500
164.9510,99.6147
164.9505,99.6066
164.9505,98.5072
164.9702,98.4402
164.9758,98.4322
165.0831,98.2911
165.1607,98.1232
165.2005,97.9425
165.2005,97.0536
165.2202,96.9866
165.2368,96.9660
165.4260,96.7768
165.4873,96.7433
165.5137,96.7405
167.4070,96.7405
167.4741,96.7602
167.4982,96.7805
167.5044,96.7871
167.5353,96.8498
167.5274,96.9192
167.4833,96.9734
167.4497,96.9896
167.4488,96.9899
167.3438,97.0412
167.2612,97.1238
167.2099,97.2287
167.2099,97.2288
167.2000,97.2968
167.2000,98.1800
167.9830,98.1800
168.0501,98.1997
168.0958,98.2525
168.1068,98.3125
168.0980,98.4402
168.0961,98.4679
168.0985,98.4791
168.1092,98.5308
168.1036,98.6004
168.0612,98.6560
167.9955,98.6798
167.9878,98.6800
167.2000,98.6800
167.2000,99.5632
167.2099,99.6312
167.2612,99.7362
167.3438,99.8188
167.4487,99.8701
167.4488,99.8701
167.5168,99.8800
168.4000,99.8800
168.4000,99.8800
168.4000,99.0947
168.4197,99.0276
168.4725,98.9819
168.5416,98.9719
168.5574,98.9752
168.5744,98.9800
168.5744,98.9800
168.6876,98.9800
168.7591,98.9702
168.8282,98.9805
168.8807,99.0266
168.9000,99.0930
168.9000,99.8800
169.7832,99.8800
169.8512,99.8701
169.9562,99.8188
170.0388,99.7362
170.0901,99.6313
170.0901,99.6312
170.1000,99.5632
170.1000,98.6800
169.3170,98.6800
169.2499,98.6603
169.2042,98.6075
169.1932,98.5475
169.1936,98.5425
169.2013,98.4300
170.3844,98.4300
170.4046,98.6092
170.4046,98.6093
170.4642,98.7795
170.5472,98.9116
170.5602,98.9323
170.6877,99.0598
170.7545,99.1018
170.8174,99.1413
170.8405,99.1558
170.8967,99.1755
171.0107,99.2154
171.0108,99.2154
171.1012,99.2256
171.1450,99.2305
171.1450,99.2305
171.1450,99.2305
171.2350,99.2305
171.2350,99.2305
171.3021,99.2229
171.3692,99.2154
171.3693,99.2154
171.3693,99.2154
171.5395,99.1558
171.6923,99.0598
171.8198,98.9323
171.9158,98.7795
171.9754,98.6093
171.9754,98.6092
171.9956,98.4300
171.9956,98.4300
171.9754,98.2507
171.9754,98.2507
171.9730,98.2441
171.9158,98.0805
171.8198,97.9277
171.6923,97.8002
171.6360,97.7648
171.5395,97.7042
171.3693,97.6446
171.3692,97.6446
171.2350,97.6295
171.2350,97.6295
171.1450,97.6295
171.1450,97.6295
171.0108,97.6446
171.0107,97.6446
170.8405,97.7042
170.6877,97.8002
170.5602,97.9277
170.4642,98.0805
170.4046,98.2507
170.4046,98.2507
170.3844,98.4300
170.3844,98.4300
169.2013,98.4300
169.2039,98.3921
169.1908,98.3292
169.1964,98.2596
169.2388,98.2040
169.3045,98.1802
169.3122,98.1800
170.1000,98.1800
170.1000,97.2968
170.0901,97.2287
170.0388,97.1238
169.9562,97.0412
169.8512,96.9899
169.8503,96.9896
169.8492,96.9889
169.8426,96.9857
169.8430,96.9848
169.7920,96.9510
169.7639,96.8870
169.7748,96.8180
169.7956,96.7871
169.7986,96.7840
169.9300,96.5827
170.0266,96.3626
170.0856,96.1296
170.0987,95.9721
170.1055,95.8900
170.1055,95.8900
170.3844,95.8900
170.4046,96.0692
170.4046,96.0693
170.4642,96.2395
170.5368,96.3550
170.5602,96.3923
170.6877,96.5198
170.7679,96.5702
170.8134,96.5987
170.8405,96.6158
170.9053,96.6385
171.0107,96.6754
171.0108,96.6754
171.1012,96.6856
171.1450,96.6905
171.1450,96.6905
171.1450,96.6905
171.2350,96.6905
171.2350,96.6905
171.3021,96.6829
171.3692,96.6754
171.3693,96.6754
171.3693,96.6754
171.5395,96.6158
171.6923,96.5198
171.8198,96.3923
171.9158,96.2395
171.9754,96.0693
171.9754,96.0692
171.9956,95.8900
171.9956,95.8900
171.9754,95.7107
171.9754,95.7107
171.9649,95.6809
171.9158,95.5405
171.8198,95.3877
171.6923,95.2602
171.6729,95.2480
171.5395,95.1642
171.3693,95.1046
171.3692,95.1046
171.2350,95.0895
171.2350,95.0895
171.1450,95.0895
171.1450,95.0895
171.0108,95.1046
171.0107,95.1046
170.8405,95.1642
170.6877,95.2602
170.5602,95.3877
170.4642,95.5405
170.4046,95.7107
170.4046,95.7107
170.3844,95.8900
170.3844,95.8900
170.1055,95.8900
170.1055,95.8900
170.0908,95.7125
170.0856,95.6504
170.0266,95.4174
169.9300,95.1973
169.9271,95.1928
169.8401,95.0595
169.7986,94.9960
169.6358,94.8192
169.5056,94.7179
169.4648,94.6611
169.4611,94.5914
169.4957,94.5307
169.5056,94.5221
169.6358,94.4208
169.7986,94.2440
169.9300,94.0427
170.0266,93.8226
170.0856,93.5896
170.0981,93.4386
170.1055,93.3500
170.1055,93.3500
170.3844,93.3500
170.4046,93.5292
170.4046,93.5293
170.4642,93.6995
170.5428,93.8245
170.5602,93.8523
170.6877,93.9798
170.7410,94.0133
170.8400,94.0755
170.8405,94.0758
170.9491,94.1138
171.0107,94.1354
171.0108,94.1354
171.1012,94.1456
171.1450,94.1505
171.1450,94.1505
171.1450,94.1505
171.2350,94.1505
171.2350,94.1505
171.3021,94.1429
171.3692,94.1354
171.3693,94.1354
171.3693,94.1354
171.5395,94.0758
171.6923,93.9798
171.8198,93.8523
171.9158,93.6995
171.9754,93.5293
171.9756,93.5270
171.9956,93.3500
171.9956,93.3500
171.9754,93.1707
171.9754,93.1707
171.9543,93.1104
171.9158,93.0005
171.9098,92.9910
171.8385,92.8774
171.8198,92.8477
171.6923,92.7202
171.6523,92.6951
171.5395,92.6242
171.3693,92.5646
171.3692,92.5646
171.2350,92.5495
171.2350,92.5495
171.1450,92.5495
171.1450,92.5495
171.0108,92.5646
171.0107,92.5646
170.8405,92.6242
170.6877,92.7202
170.5602,92.8477
170.4642,93.0005
170.4046,93.1707
170.4046,93.1707
170.3844,93.3500
170.3844,93.3500
170.1055,93.3500
170.1055,93.3500
170.0868,93.1252
170.0856,93.1104
170.0266,92.8774
169.9300,92.6573
169.9150,92.6342
169.8471,92.5303
169.7986,92.4560
169.6358,92.2792
169.6358,92.2792
169.6358,92.2792
169.4461,92.1315
169.4461,92.1315
169.2347,92.0171
169.2347,92.0171
169.0073,91.9391
168.8295,91.9094
168.7702,91.8995
168.5298,91.8995
168.4824,91.9074
168.2927,91.9391
168.0653,92.0171
168.0653,92.0171
167.8539,92.1315
167.8539,92.1315
167.6642,92.2792
167.6642,92.2792
167.6642,92.2792
167.6642,92.2792
167.5014,92.4560
167.5014,92.4560
167.4983,92.4595
167.4384,92.4955
167.4070,92.4995
164.5871,92.4995
164.5821,92.4993
164.5268,92.4948
164.5268,92.4948
164.4466,92.5057
164.3661,92.5145
164.3651,92.5147
164.3445,92.5195
164.3435,92.5198
164.2675,92.5477
164.1908,92.5736
164.1899,92.5740
164.1707,92.5832
164.1699,92.5836
164.1016,92.6272
164.0323,92.6689
164.0315,92.6695
164.0148,92.6826
164.0140,92.6832
163.9567,92.7405
163.8980,92.7962
163.8973,92.7969
163.8831,92.8141
163.1340,93.5632
163.0727,93.5967
163.0463,93.5995
160.6245,93.5995
160.5575,93.5798
160.5117,93.5270
160.5005,93.4755
160.5005,92.6184
160.5202,92.5514
160.5700,92.5070
160.6065,92.4892
160.6892,92.4065
160.6892,92.4065
160.6952,92.3981
160.6965,92.3991
160.7357,92.3561
160.8033,92.3382
160.8698,92.3596
160.9038,92.3989
160.9048,92.3981
160.9108,92.4065
160.9935,92.4892
160.9935,92.4892
160.9935,92.4892
161.0986,92.5406
161.1327,92.5455
161.1667,92.5505
161.1667,92.5505
162.7333,92.5505
162.7596,92.5467
162.8014,92.5406
162.9065,92.4892
162.9892,92.4065
163.0406,92.3014
163.0505,92.2333
163.0505,90.1667
163.0406,90.0986
162.9892,89.9935
162.9892,89.9935
162.9892,89.9935
162.9065,89.9108
162.8700,89.8930
162.8185,89.8459
162.8005,89.7816
162.8005,88.7871
162.8007,88.7821
162.8022,88.7639
162.8052,88.7268
162.7943,88.6466
162.7855,88.5661
162.7855,88.5661
162.7853,88.5651
162.7805,88.5446
162.7802,88.5435
162.7523,88.4675
162.7264,88.3908
162.7260,88.3898
162.7169,88.3709
162.7164,88.3699
162.7164,88.3699
162.6728,88.3017
162.6311,88.2323
162.6311,88.2323
162.6311,88.2323
162.6305,88.2315
162.6175,88.2149
162.6168,88.2140
162.6168,88.2140
162.5596,88.1568
162.5398,88.1359
162.5038,88.0980
162.5030,88.0973
162.4859,88.0831
162.4368,88.0340
162.4033,87.9727
162.4005,87.9463
162.4005,87.7245
162.4202,87.6575
162.4730,87.6117
162.5245,87.6005
162.5894,87.6005
162.7068,87.5850
162.7068,87.5850
162.7068,87.5850
162.8528,87.5245
162.9783,87.4283
163.0745,87.3028
163.1350,87.1568
163.1505,87.0394
163.1505,85.6606
163.1505,85.6606
163.1505,85.6606
163.1350,85.5432
163.1350,85.5432
163.1350,85.5432
163.0745,85.3972
162.9783,85.2717
162.8528,85.1755
162.8077,85.1568
162.7068,85.1150
162.7068,85.1150
162.5894,85.0995
162.5894,85.0995
162.5894,85.0995
162.5894,85.0995
160.5106,85.0995
160.3932,85.1150
160.3932,85.1150
160.2472,85.1755
160.1217,85.2717
160.0255,85.3972
159.9650,85.5432
159.9650,85.5432
159.9495,85.6606
159.9495,85.6606
159.9495,85.6606
159.9495,87.0394
159.9650,87.1568
159.9650,87.1568
160.0251,87.3021
160.0255,87.3028
160.1217,87.4283
160.2472,87.5245
160.3932,87.5850
160.5106,87.6005
160.5755,87.6005
160.6425,87.6202
160.6883,87.6730
160.6995,87.7245
160.6995,88.2755
160.6798,88.3425
160.6270,88.3883
160.5755,88.3995
155.5741,88.3995
155.5071,88.3798
155.4757,88.3510
155.4533,88.3217
155.3278,88.2255
155.3238,88.2238
155.1818,88.1650
155.1818,88.1650
155.0644,88.1495
155.0644,88.1495
155.0644,88.1495
155.0644,88.1495
154.0356,88.1495
153.9182,88.1650
153.9182,88.1650
153.7722,88.2255
153.6467,88.3217
153.5505,88.4472
153.4900,88.5932
153.4900,88.5932
153.4745,88.7106
153.4745,89.2894
153.4900,89.4068
153.4900,89.4068
153.5302,89.5039
153.5505,89.5528
153.6467,89.6783
153.7722,89.7745
153.9182,89.8350
153.9182,89.8350
153.9198,89.8357
153.9742,89.8795
153.9963,89.9458
153.9790,90.0135
153.9279,90.0612
153.9198,90.0648
153.7724,90.1259
153.6471,90.2221
153.5509,90.3474
153.4904,90.4934
153.4904,90.4934
153.4750,90.6107
153.4750,90.6500
155.6250,90.6500
155.6250,90.6107
155.6096,90.4934
155.6096,90.4934
155.5491,90.3474
155.4529,90.2221
155.3276,90.1259
155.1802,90.0648
155.1257,90.0210
155.1037,89.9547
155.1210,89.8870
155.1721,89.8394
155.1802,89.8357
155.1818,89.8350
155.1818,89.8350
155.3278,89.7745
155.4533,89.6783
155.4757,89.6490
155.5322,89.6078
155.5741,89.6005
160.9755,89.6005
161.0425,89.6202
161.0883,89.6730
161.0995,89.7245
161.0995,89.7816
161.0798,89.8486
161.0300,89.8930
160.9935,89.9108
160.9108,89.9935
160.9048,90.0019
160.9035,90.0009
160.8643,90.0439
160.7967,90.0618
160.7302,90.0403
160.6962,90.0011
160.6952,90.0019
160.6892,89.9935
160.6065,89.9108
160.5981,89.9067
160.5014,89.8594
160.5014,89.8594
160.4333,89.8495
160.4333,89.8495
158.8667,89.8495
158.8667,89.8495
158.7986,89.8594
158.6935,89.9108
158.6108,89.9935
158.6048,90.0019
158.6037,90.0010
158.5640,90.0444
158.4965,90.0624
158.4300,90.0409
158.3958,90.0015
158.3948,90.0022
158.3888,89.9938
158.3062,89.9112
158.2013,89.8599
158.2012,89.8599
158.1332,89.8500
157.6000,89.8500
157.6000,92.5500
158.1332,92.5500
158.2012,92.5401
158.3062,92.4888
158.3888,92.4062
158.3948,92.3978
158.3960,92.3987
158.4354,92.3556
158.5030,92.3376
158.5695,92.3591
158.6039,92.3988
158.6048,92.3981
158.6108,92.4065
158.6935,92.4892
158.6935,92.4892
158.7108,92.4976
158.7300,92.5070
158.7815,92.5541
158.7995,92.6184
158.7995,94.3707
158.7979,94.3907
158.7957,94.4037
158.7957,94.4037
158.7994,94.4714
158.7995,94.4747
158.7995,95.1255
158.7798,95.1925
158.7270,95.2383
158.6755,95.2495
155.5316,95.2495
155.4645,95.2298
155.4561,95.2239
155.4533,95.2217
155.4533,95.2217
155.3278,95.1255
155.3223,95.1232
155.2716,95.1022
155.1818,95.0650
155.1818,95.0650
155.1802,95.0643
155.1257,95.0204
155.1037,94.9542
155.1210,94.8865
155.1721,94.8388
155.1802,94.8352
155.3276,94.7741
155.4529,94.6779
155.5491,94.5526
155.6096,94.4066
155.6096,94.4066
155.6250,94.2893
155.6250,94.2893
155.6250,94.2500
153.4750,94.2500
153.4750,94.2893
153.4904,94.4066
153.4904,94.4066
153.5509,94.5526
153.6471,94.6779
153.7724,94.7741
153.9198,94.8352
153.9742,94.8790
153.9963,94.9453
153.9790,95.0130
153.9279,95.0606
153.9198,95.0643
153.7722,95.1255
153.7067,95.1757
153.6415,95.2009
153.5731,95.1869
153.5435,95.1650
153.3397,94.9612
153.3062,94.8999
153.3041,94.8605
153.3052,94.8500
153.2865,94.6722
153.2502,94.5606
153.2313,94.5022
153.2312,94.5022
153.2154,94.4747
153.1419,94.3473
153.0896,94.2893
153.0222,94.2145
153.0222,94.2145
153.0222,94.2145
153.0222,94.2145
152.8776,94.1094
152.7143,94.0367
152.7143,94.0367
152.5866,94.0095
152.5394,93.9995
152.3606,93.9995
152.3300,94.0060
152.1857,94.0367
152.1857,94.0367
152.0224,94.1094
151.8778,94.2145
151.7581,94.3473
151.6687,94.5022
151.6687,94.5022
151.6135,94.6722
151.6135,94.6722
151.5981,94.8192
151.5948,94.8500
151.5961,94.8624
151.6135,95.0278
151.6135,95.0278
151.6687,95.1978
151.6687,95.1978
151.7581,95.3527
151.7897,95.3877
151.8778,95.4855
151.8778,95.4855
151.8778,95.4855
152.0224,95.5906
152.1857,95.6633
152.3606,95.7005
152.4706,95.7005
152.5377,95.7202
152.5583,95.7368
153.1041,96.2826
153.1493,96.3310
153.1790,96.3491
153.1871,96.3540
153.1924,96.3576
153.2277,96.3844
153.2444,96.3909
153.2633,96.4004
153.2786,96.4097
153.3212,96.4216
153.3273,96.4236
153.3684,96.4399
153.3863,96.4417
153.4071,96.4457
153.4243,96.4505
153.4686,96.4505
153.4749,96.4508
153.5021,96.4536
153.5668,96.4801
153.5878,96.5015
153.6308,96.5575
153.6467,96.5783
153.7722,96.6745
153.9182,96.7350
154.0356,96.7505
155.0644,96.7505
155.0644,96.7505
155.1818,96.7350
155.1818,96.7350
155.1818,96.7350
155.3278,96.6745
155.4533,96.5783
155.4533,96.5783
155.4561,96.5761
155.5213,96.5509
155.5316,96.5505
157.2755,96.5505
157.3425,96.5702
157.3883,96.6230
157.3995,96.6745
157.3995,98.5333
157.4094,98.6014
157.4608,98.7065
157.5435,98.7892
157.5435,98.7892
157.5435,98.7892
157.6486,98.8406
157.6802,98.8452
157.7167,98.8505
157.7167,98.8505
158.2130,98.8505
158.2800,98.8702
158.3258,98.9230
158.3370,98.9745
158.3370,99.1413
158.3173,99.2083
158.2885,99.2397
158.2467,99.2717
158.2467,99.2717
158.2467,99.2717
158.1866,99.3500
158.1505,99.3972
158.0900,99.5432
158.0900,99.5432
158.0745,99.6606
158.0745,99.6606
158.0745,100.6394
158.0900,100.7568
158.0900,100.7568
158.1079,100.8000
158.1505,100.9028
158.2467,101.0283
158.3722,101.1245
158.3755,101.1271
158.4167,101.1836
158.4209,101.2533
158.3867,101.3142
158.3250,101.3470
158.3000,101.3495
153.4450,101.3495
153.3780,101.3298
153.3322,101.2770
153.3223,101.2079
153.3513,101.1443
153.3615,101.1339
153.3957,101.1027
153.3957,101.1027
153.5199,100.9382
153.6118,100.7536
153.6682,100.5553
153.6873,100.3500
153.6682,100.1447
153.6137,99.9528
153.6118,99.9464
153.5203,99.7625
153.5199,99.7618
153.4274,99.6393
153.3957,99.5973
153.2433,99.4584
153.2433,99.4584
153.0680,99.3499
153.0680,99.3499
152.9719,99.3126
152.8758,99.2754
152.6731,99.2375
152.4669,99.2375
152.2642,99.2754
152.2642,99.2754
152.2642,99.2754
152.0720,99.3499
152.0720,99.3499
151.8967,99.4584
151.8967,99.4584
151.7443,99.5973
151.6201,99.7618
151.5282,99.9464
151.4718,100.1447
151.4527,100.3500
151.4718,100.5553
151.5282,100.7536
151.6201,100.9382
151.7443,101.1027
151.7785,101.1339
151.8148,101.1936
151.8130,101.2634
151.7738,101.3212
151.7095,101.3486
151.6950,101.3495
150.9050,101.3495
150.8380,101.3298
150.7922,101.2770
150.7823,101.2079
150.8113,101.1443
150.8215,101.1339
150.8557,101.1027
150.8557,101.1027
150.9799,100.9382
151.0718,100.7536
151.1282,100.5553
151.1473,100.3500
151.1282,100.1447
151.0737,99.9528
151.0718,99.9464
150.9802,99.7625
150.9799,99.7618
150.8874,99.6393
150.8557,99.5973
150.7033,99.4584
150.7033,99.4584
150.5280,99.3499
150.5280,99.3499
150.4319,99.3126
150.3358,99.2754
150.1331,99.2375
149.9269,99.2375
149.7242,99.2754
149.7242,99.2754
149.7242,99.2754
149.5320,99.3499
149.5320,99.3499
149.3567,99.4584
149.3567,99.4584
149.2043,99.5973
149.0801,99.7618
148.9882,99.9464
148.9318,100.1447
148.9127,100.3500
148.9318,100.5553
148.9882,100.7536
149.0801,100.9382
149.2043,101.1027
149.2385,101.1339
149.2748,101.1936
149.2730,101.2634
149.2338,101.3212
149.1695,101.3486
149.1550,101.3495
148.3650,101.3495
148.2980,101.3298
148.2522,101.2770
148.2423,101.2079
148.2713,101.1443
148.2815,101.1339
148.3157,101.1027
148.3157,101.1027
148.4399,100.9382
148.5318,100.7536
148.5882,100.5553
148.6073,100.3500
148.5882,100.1447
148.5337,99.9528
148.5318,99.9464
148.4402,99.7625
148.4399,99.7618
148.3157,99.5973
148.3157,99.5973
148.3122,99.5927
148.3137,99.5916
148.2867,99.5364
148.2949,99.4670
148.3213,99.4279
148.3489,99.4003
148.3550,99.3950
148.3833,99.3733
148.4795,99.2478
148.5400,99.1018
148.5516,99.0140
148.5799,98.9501
148.6382,98.9116
148.7081,98.9108
148.7290,98.9188
148.7708,98.9392
148.7736,98.9406
148.8417,98.9505
148.8417,98.9505
149.6083,98.9505
149.6310,98.9472
149.6764,98.9406
149.7815,98.8892
149.7815,98.8892
149.7879,98.8846
149.8539,98.8616
149.9219,98.8780
149.9321,98.8846
149.9385,98.8892
149.9385,98.8892
150.0436,98.9406
150.0740,98.9450
150.1117,98.9505
150.1117,98.9505
150.8783,98.9505
150.9010,98.9472
150.9464,98.9406
151.0515,98.8892
151.0515,98.8892
151.0584,98.8843
151.1244,98.8613
151.1923,98.8777
151.2025,98.8843
151.2088,98.8888
151.3137,98.9401
151.3138,98.9401
151.3818,98.9500
151.5150,98.9500
151.5150,98.9500
151.5150,97.9000
152.0150,97.9000
152.0150,98.9500
152.1482,98.9500
152.2162,98.9401
152.3212,98.8888
152.4038,98.8062
152.4551,98.7013
152.4551,98.7012
152.4650,98.6332
152.4650,97.9000
152.0150,97.9000
151.5150,97.9000
151.5150,96.3500
152.0150,96.3500
152.0150,97.4000
152.4650,97.4000
152.4650,96.6668
152.4551,96.5987
152.4038,96.4938
152.3212,96.4112
152.2163,96.3599
152.2162,96.3599
152.1482,96.3500
152.0150,96.3500
151.5150,96.3500
151.3818,96.3500
151.3137,96.3599
151.2240,96.4038
151.1551,96.4156
151.0908,96.3882
151.0515,96.3305
151.0455,96.2924
151.0455,93.7500
153.4750,93.7500
154.3000,93.7500
154.3000,93.1500
154.8000,93.1500
154.8000,93.7500
155.6250,93.7500
155.6250,93.7107
155.6096,93.5934
155.6096,93.5934
155.5491,93.4474
155.4529,93.3221
155.3276,93.2259
155.1816,93.1654
155.1816,93.1654
155.0643,93.1500
154.8000,93.1500
154.3000,93.1500
154.0357,93.1500
153.9184,93.1654
153.9184,93.1654
153.7724,93.2259
153.6471,93.3221
153.5509,93.4474
153.4904,93.5934
153.4904,93.5934
153.4750,93.7107
153.4750,93.7500
151.0455,93.7500
151.0455,92.2844
151.0652,92.2173
151.0818,92.1967
152.1285,91.1500
153.4750,91.1500
153.4750,91.1893
153.4904,91.3066
153.4904,91.3066
153.5509,91.4526
153.6471,91.5779
153.7724,91.6741
153.9184,91.7346
153.9184,91.7346
154.0357,91.7500
154.3000,91.7500
154.3000,91.7500
154.3000,91.1500
154.8000,91.1500
154.8000,91.7500
155.0643,91.7500
155.1816,91.7346
155.1816,91.7346
155.3276,91.6741
155.4529,91.5779
155.5491,91.4526
155.5502,91.4500
156.2500,91.4500
156.2500,92.2332
156.2599,92.3012
156.3112,92.4062
156.3938,92.4888
156.4987,92.5401
156.4988,92.5401
156.5668,92.5500
157.1000,92.5500
157.1000,92.5500
157.1000,91.4500
156.2500,91.4500
155.5502,91.4500
155.6096,91.3066
155.6096,91.3066
155.6250,91.1893
155.6250,91.1893
155.6250,91.1500
154.8000,91.1500
154.3000,91.1500
153.4750,91.1500
152.1285,91.1500
152.3285,90.9500
156.2500,90.9500
157.1000,90.9500
157.1000,89.8500
156.5668,89.8500
156.4988,89.8599
156.3938,89.9112
156.3112,89.9938
156.2599,90.0987
156.2599,90.0988
156.2500,90.1668
156.2500,90.9500
152.3285,90.9500
153.0326,90.2459
153.0810,90.2007
153.1040,90.1629
153.1076,90.1576
153.1250,90.1347
153.1344,90.1223
153.1344,90.1223
153.1344,90.1223
153.1409,90.1056
153.1503,90.0867
153.1597,90.0714
153.1716,90.0287
153.1736,90.0228
153.1899,89.9816
153.1917,89.9637
153.1957,89.9429
153.2005,89.9257
153.2005,89.8814
153.2008,89.8751
153.2011,89.8727
153.2054,89.8310
153.2023,89.8133
153.2005,89.7923
153.2005,87.7294
153.2202,87.6623
153.2368,87.6417
153.8392,87.0394
155.9495,87.0394
155.9650,87.1568
155.9650,87.1568
156.0251,87.3021
156.0255,87.3028
156.1217,87.4283
156.2472,87.5245
156.3932,87.5850
156.5106,87.6005
158.5894,87.6005
158.5894,87.6005
158.7068,87.5850
158.7068,87.5850
158.7068,87.5850
158.8528,87.5245
158.9783,87.4283
159.0745,87.3028
159.1350,87.1568
159.1505,87.0394
159.1505,85.7208
159.1702,85.6538
159.1868,85.6331
160.1831,84.6368
160.2445,84.6033
160.2708,84.6005
162.3586,84.6005
162.4256,84.6202
162.4336,84.6258
162.4481,84.6368
162.5089,84.6831
162.6768,84.7607
162.6768,84.7607
162.6768,84.7607
162.7316,84.7728
162.8575,84.8005
165.4863,84.8005
165.5534,84.8202
165.5740,84.8368
167.1732,86.4360
167.2067,86.4973
167.2091,86.5339
167.1945,86.7100
167.1945,86.7100
167.2144,86.9496
167.2734,87.1826
167.3700,87.4027
167.4891,87.5850
167.5014,87.6040
167.5044,87.6071
167.5353,87.6698
167.5274,87.7392
167.4833,87.7934
167.4497,87.8096
167.4488,87.8099
167.3438,87.8612
167.2612,87.9438
167.2099,88.0487
167.2099,88.0488
167.2000,88.1168
167.2000,89.0000
167.9830,89.0000
168.0501,89.0197
168.0958,89.0725
168.1068,89.1325
168.1064,89.1370
168.1064,89.1370
168.0961,89.2879
168.1089,89.3495
168.1092,89.3508
168.1036,89.4204
168.0612,89.4760
167.9955,89.4998
167.9878,89.5000
167.2000,89.5000
167.2000,90.3832
167.2099,90.4512
167.2612,90.5562
167.3438,90.6388
167.4487,90.6901
167.4488,90.6901
167.5168,90.7000
168.4000,90.7000
168.4000,90.7000
168.4000,89.9147
168.4197,89.8476
168.4725,89.8019
168.5416,89.7919
168.5574,89.7952
168.5744,89.8000
168.5744,89.8000
168.6876,89.8000
168.7591,89.7902
168.8282,89.8005
168.8807,89.8466
168.9000,89.9130
168.9000,90.7000
169.7832,90.7000
169.8512,90.6901
169.9562,90.6388
170.0388,90.5562
170.0901,90.4513
170.0901,90.4512
170.1000,90.3832
170.1000,89.5000
169.3170,89.5000
169.2499,89.4803
169.2042,89.4275
169.1932,89.3675
169.1942,89.3533
169.2013,89.2500
170.3844,89.2500
170.4046,89.4292
170.4046,89.4293
170.4642,89.5995
170.5137,89.6783
170.5602,89.7523
170.6877,89.8798
170.7377,89.9112
170.8029,89.9522
170.8405,89.9758
170.9831,90.0257
171.0107,90.0354
171.0108,90.0354
171.0862,90.0439
171.1450,90.0505
171.1450,90.0505
171.1450,90.0505
171.2350,90.0505
171.2350,90.0505
171.3021,90.0429
171.3692,90.0354
171.3693,90.0354
171.3693,90.0354
171.5395,89.9758
171.6923,89.8798
171.8198,89.7523
171.9158,89.5995
171.9754,89.4293
171.9754,89.4287
171.9956,89.2500
171.9956,89.2500
171.9754,89.0707
171.9754,89.0707
171.9354,88.9566
171.9158,88.9005
171.8198,88.7477
171.6923,88.6202
171.6507,88.5941
171.5395,88.5242
171.3693,88.4646
171.3692,88.4646
171.2350,88.4495
171.2350,88.4495
171.1450,88.4495
171.1450,88.4495
171.0108,88.4646
171.0107,88.4646
170.8405,88.5242
170.6877,88.6202
170.5602,88.7477
170.4642,88.9005
170.4046,89.0707
170.4046,89.0707
170.3844,89.2500
170.3844,89.2500
169.2013,89.2500
169.2039,89.2121
169.1908,89.1492
169.1964,89.0796
169.2388,89.0240
169.3045,89.0002
169.3122,89.0000
170.1000,89.0000
170.1000,88.1168
170.0901,88.0487
170.0388,87.9438
169.9562,87.8612
169.8512,87.8099
169.8503,87.8096
169.8492,87.8089
169.8426,87.8057
169.8430,87.8048
169.7920,87.7710
169.7639,87.7070
169.7748,87.6380
169.7956,87.6071
169.7986,87.6040
169.9300,87.4027
170.0266,87.1826
170.0856,86.9496
170.0948,86.8384
170.1055,86.7100
170.1055,86.7100
170.3844,86.7100
170.4046,86.8892
170.4046,86.8893
170.4642,87.0595
170.5144,87.1394
170.5602,87.2123
170.6877,87.3398
170.7462,87.3765
170.8285,87.4283
170.8405,87.4358
171.0107,87.4954
171.0107,87.4954
171.0108,87.4954
171.1012,87.5056
171.1450,87.5105
171.1450,87.5105
171.1450,87.5105
171.2350,87.5105
171.2350,87.5105
171.3021,87.5029
171.3692,87.4954
171.3693,87.4954
171.3693,87.4954
171.5395,87.4358
171.6923,87.3398
171.8198,87.2123
171.9158,87.0595
171.9754,86.8893
171.9797,86.8512
171.9956,86.7100
171.9956,86.7100
171.9754,86.5307
171.9754,86.5307
171.9158,86.3605
171.8766,86.2981
171.8198,86.2077
171.6923,86.0802
171.6335,86.0432
171.5395,85.9842
171.3693,85.9246
171.3692,85.9246
171.2350,85.9095
171.2350,85.9095
171.1450,85.9095
171.1450,85.9095
171.0108,85.9246
171.0107,85.9246
170.8405,85.9842
170.6877,86.0802
170.5602,86.2077
170.4642,86.3605
170.4046,86.5307
170.4046,86.5307
170.3844,86.7100
170.3844,86.7100
170.1055,86.7100
170.1055,86.7100
170.0917,86.5443
170.0856,86.4704
170.0266,86.2374
169.9300,86.0173
169.9198,86.0016
169.8539,85.9007
169.7986,85.8160
169.6358,85.6392
169.6358,85.6392
169.6358,85.6392
169.4461,85.4915
169.4461,85.4915
169.2347,85.3771
169.2347,85.3771
169.0073,85.2991
168.8165,85.2672
168.7702,85.2595
168.5298,85.2595
168.5298,85.2595
168.4835,85.2672
168.4141,85.2588
168.3754,85.2326
167.4845,84.3417
166.5176,83.3748
166.5142,83.3711
166.4948,83.3483
166.4783,83.3289
166.4719,83.3240
166.4139,83.2799
166.3508,83.2292
166.3508,83.2292
166.3508,83.2292
166.3507,83.2292
166.3499,83.2286
166.3320,83.2175
166.3311,83.2169
166.2576,83.1829
166.1850,83.1470
166.1840,83.1466
166.1642,83.1396
166.1632,83.1393
166.0841,83.1219
166.0055,83.1023
166.0046,83.1022
165.9835,83.0996
165.9825,83.0995
165.9825,83.0995
165.9825,83.0995
165.9015,83.0995
165.8206,83.0973
165.8195,83.0974
165.7974,83.0995
162.9039,83.0995
162.7661,83.1145
162.5908,83.1736
162.5908,83.1736
162.4323,83.2689
162.4269,83.2730
162.4253,83.2709
162.3736,83.2973
162.3506,83.2995
160.0355,83.2995
160.0195,83.2977
160.0195,83.2980
160.0117,83.2972
159.9398,83.2995
159.9091,83.2995
159.9091,83.2995
159.9091,83.2995
159.9018,83.3004
159.8960,83.3009
159.8474,83.3024
159.8329,83.3066
159.8270,83.3083
159.8080,83.3123
159.7869,83.3149
159.7869,83.3149
159.7418,83.3328
159.7363,83.3347
159.6896,83.3483
159.6713,83.3591
159.6539,83.3676
159.6341,83.3754
159.5948,83.4040
159.5899,83.4072
159.5481,83.4319
159.5331,83.4469
159.5183,83.4596
159.5012,83.4720
159.5012,83.4720
159.4702,83.5095
159.4663,83.5138
157.9169,85.0632
157.8555,85.0967
157.8292,85.0995
156.5106,85.0995
156.3932,85.1150
156.3932,85.1150
156.2472,85.1755
156.1217,85.2717
156.0255,85.3972
155.9650,85.5432
155.9650,85.5432
155.9495,85.6606
155.9495,85.6606
155.9495,85.6606
155.9495,87.0394
153.8392,87.0394
154.9326,85.9459
154.9554,85.9246
154.9810,85.9007
155.0040,85.8628
155.0076,85.8576
155.0344,85.8223
155.0409,85.8056
155.0503,85.7867
155.0597,85.7714
155.0716,85.7287
155.0736,85.7228
155.0899,85.6816
155.0917,85.6637
155.0957,85.6429
155.1005,85.6257
155.1005,85.5814
155.1008,85.5751
155.1011,85.5722
155.1054,85.5310
155.1023,85.5133
155.1005,85.4923
155.1005,84.1594
155.1015,84.1288
155.1028,84.0932
155.1022,84.0908
155.0923,84.0502
155.0911,84.0439
155.0897,84.0339
155.0851,84.0001
155.0839,83.9975
155.0779,83.9836
155.0712,83.9636
155.0669,83.9461
155.0598,83.9334
155.0452,83.9076
155.0424,83.9019
155.0320,83.8779
155.0248,83.8613
155.0135,83.8474
155.0016,83.8299
154.9928,83.8142
154.9615,83.7829
154.9572,83.7782
154.9293,83.7439
154.9146,83.7335
154.8984,83.7199
154.6255,83.4469
154.3459,83.1674
154.3007,83.1190
154.2814,83.1072
154.2629,83.0960
154.2576,83.0924
154.2223,83.0656
154.2223,83.0656
154.2056,83.0591
154.1867,83.0497
154.1714,83.0403
154.1288,83.0284
154.1227,83.0264
154.0816,83.0101
154.0816,83.0101
154.0637,83.0083
154.0430,83.0043
154.0257,82.9995
154.0257,82.9995
153.9814,82.9995
153.9751,82.9992
153.9474,82.9963
153.9310,82.9946
153.9310,82.9946
153.9133,82.9977
153.8923,82.9995
143.9794,82.9995
143.9132,82.9972
143.9132,82.9972
143.9132,82.9972
143.8702,83.0077
143.8639,83.0089
143.8201,83.0149
143.8036,83.0221
143.7836,83.0288
143.7661,83.0331
143.7661,83.0331
143.7276,83.0548
143.7219,83.0576
143.6813,83.0752
143.6674,83.0865
143.6499,83.0984
143.6342,83.1072
143.6342,83.1072
143.6029,83.1385
143.5982,83.1428
143.5639,83.1707
143.5535,83.1854
143.5399,83.2016
142.7538,83.9876
142.6925,84.0211
142.6434,84.0219
142.5131,83.9975
142.3069,83.9975
142.1042,84.0354
142.1042,84.0354
142.1042,84.0354
141.9120,84.1099
141.9120,84.1099
141.7367,84.2184
141.7367,84.2184
141.5843,84.3573
141.4601,84.5218
141.3682,84.7064
141.3118,84.9047
141.2927,85.1100
141.3118,85.3153
141.3682,85.5136
141.4601,85.6982
141.5843,85.8627
141.7367,86.0016
141.7367,86.0016
141.7620,86.0173
141.9120,86.1101
142.1042,86.1846
142.3069,86.2225
142.3069,86.2225
142.5131,86.2225
142.5131,86.2225
142.7158,86.1846
142.9080,86.1101
143.0833,86.0016
143.2357,85.8627
143.3599,85.6982
143.4518,85.5136
143.5082,85.3153
143.5273,85.1100
143.5082,84.9047
143.5028,84.8857
143.5034,84.8158
143.5344,84.7641
143.6963,84.6023
143.7576,84.5688
143.8273,84.5738
143.8832,84.6156
143.9076,84.6811
143.9032,84.7239
143.8518,84.9047
143.8327,85.1100
143.8518,85.3153
143.9082,85.5136
144.0001,85.6982
144.1243,85.8627
144.2767,86.0016
144.2767,86.0016
144.2938,86.0122
144.3404,86.0642
144.3515,86.1332
144.3236,86.1972
144.3162,86.2053
143.8028,86.7187
143.7415,86.7521
143.7330,86.7537
143.6936,86.7594
143.5885,86.8108
143.5821,86.8154
143.5161,86.8384
143.4481,86.8220
143.4379,86.8154
143.4315,86.8108
143.3264,86.7594
143.2583,86.7495
143.2583,86.7495
142.4917,86.7495
142.4917,86.7495
142.4236,86.7594
142.3185,86.8108
142.3121,86.8154
142.2461,86.8384
142.1781,86.8220
142.1679,86.8154
142.1615,86.8108
142.0564,86.7594
141.9883,86.7495
141.9883,86.7495
141.2217,86.7495
141.2217,86.7495
141.1536,86.7594
141.0485,86.8108
141.0421,86.8154
140.9761,86.8384
140.9081,86.8220
140.8979,86.8154
140.8915,86.8108
140.7864,86.7594
140.7183,86.7495
140.7183,86.7495
139.9517,86.7495
139.9517,86.7495
139.8836,86.7594
139.7785,86.8108
139.6958,86.8935
139.6444,86.9986
139.6345,87.0667
139.6345,88.9566
139.6148,89.0237
139.5620,89.0694
139.4929,89.0794
139.4293,89.0503
139.4228,89.0443
138.9459,88.5674
138.9246,88.5446
138.9007,88.5190
138.8814,88.5072
138.8629,88.4960
138.8576,88.4924
138.8223,88.4656
138.8223,88.4656
138.8056,88.4591
138.7867,88.4497
138.7714,88.4403
138.7288,88.4284
138.7227,88.4264
138.6816,88.4101
138.6816,88.4101
138.6637,88.4083
138.6430,88.4043
138.6257,88.3995
138.6257,88.3995
138.5814,88.3995
138.5751,88.3992
138.5474,88.3963
138.5310,88.3946
138.5310,88.3946
138.5133,88.3977
138.4923,88.3995
135.7594,88.3995
135.6932,88.3972
135.6932,88.3972
135.6932,88.3972
135.6502,88.4077
135.6439,88.4089
135.6001,88.4149
135.5836,88.4221
135.5636,88.4288
135.5461,88.4331
135.5461,88.4331
135.5076,88.4548
135.5019,88.4576
135.4613,88.4752
135.4474,88.4865
135.4299,88.4984
135.4142,88.5072
135.4142,88.5072
135.3829,88.5385
135.3782,88.5428
135.3439,88.5707
135.3335,88.5854
135.3199,88.6016
134.4598,89.4617
134.3984,89.4952
134.3287,89.4902
134.2728,89.4483
134.2550,89.4150
134.2511,89.4038
134.2384,89.3675
134.2325,89.3504
134.2255,89.3095
134.2255,88.0921
134.2283,88.0658
134.2294,88.0611
134.2257,88.0093
134.2255,88.0049
134.2255,87.9892
134.2233,87.9737
134.2228,87.9693
134.2227,87.9676
134.2191,87.9175
134.2174,87.9130
134.2108,87.8873
134.2102,87.8825
134.2080,87.8778
134.1886,87.8354
134.1869,87.8313
134.1688,87.7827
134.1659,87.7788
134.1524,87.7560
134.1504,87.7516
134.1504,87.7516
134.1504,87.7516
134.1499,87.7509
134.1497,87.7501
134.1467,87.7436
134.1476,87.7431
134.1302,87.6839
134.1499,87.6168
134.1787,87.5855
134.2533,87.5283
134.3495,87.4028
134.4100,87.2568
134.4255,87.1394
134.4255,86.1606
134.4255,86.1606
134.4255,86.1606
134.4100,86.0432
134.4100,86.0432
134.4100,86.0432
134.3495,85.8972
134.3495,85.8972
134.3495,85.8972
134.2886,85.8178
134.2634,85.7526
134.2630,85.7423
134.2630,85.4577
134.2827,85.3907
134.2886,85.3822
134.3079,85.3571
134.3495,85.3028
134.4100,85.1568
134.4162,85.1100
138.7527,85.1100
138.7718,85.3153
138.8282,85.5136
138.9201,85.6982
139.0443,85.8627
139.1967,86.0016
139.1967,86.0016
139.2220,86.0173
139.3720,86.1101
139.5642,86.1846
139.7669,86.2225
139.7669,86.2225
139.9731,86.2225
139.9731,86.2225
140.1758,86.1846
140.3680,86.1101
140.5433,86.0016
140.6957,85.8627
140.8199,85.6982
140.9118,85.5136
140.9682,85.3153
140.9873,85.1100
140.9682,84.9047
140.9118,84.7064
140.8717,84.6258
140.8600,84.6023
140.8199,84.5218
140.6957,84.3573
140.6957,84.3573
140.5433,84.2184
140.5433,84.2184
140.3680,84.1099
140.3680,84.1099
140.2409,84.0606
140.1758,84.0354
139.9731,83.9975
139.7669,83.9975
139.5642,84.0354
139.5642,84.0354
139.5642,84.0354
139.3720,84.1099
139.3720,84.1099
139.1967,84.2184
139.1967,84.2184
139.0443,84.3573
138.9201,84.5218
138.8282,84.7064
138.7718,84.9047
138.7527,85.1100
134.4162,85.1100
134.4255,85.0394
134.4255,84.0606
134.4255,84.0606
134.4255,84.0606
134.4100,83.9432
134.4100,83.9432
134.4100,83.9432
134.3495,83.7972
134.2533,83.6717
134.1278,83.5755
133.9818,83.5150
133.9818,83.5150
133.8644,83.4995
133.2606,83.4995
133.1432,83.5150
133.1432,83.5150
132.9972,83.5755
132.8717,83.6717
132.7755,83.7972
132.7646,83.8235
132.7207,83.8779
132.6544,83.8999
132.5867,83.8827
132.5391,83.8315
132.5354,83.8235
132.5342,83.8205
132.5245,83.7972
132.4283,83.6717
132.3028,83.5755
132.1568,83.5150
132.1568,83.5150
132.0394,83.4995
131.4356,83.4995
131.3182,83.5150
131.3182,83.5150
131.1722,83.5755
131.0467,83.6717
130.9505,83.7972
130.9134,83.8866
130.8696,83.9410
130.8150,83.9621
130.7932,83.9650
130.6472,84.0255
130.5217,84.1217
130.5000,84.1500
130.4947,84.1561
129.6561,84.9947
129.6500,85.0000
129.6217,85.0217
129.5540,85.1100
129.5255,85.1472
129.4650,85.2932
129.4650,85.2932
129.4443,85.4500
129.4443,85.4500
129.4490,85.4853
129.4495,85.4934
129.4495,89.4038
129.4298,89.4708
129.4177,89.4868
129.4081,89.4973
129.3187,89.6522
129.3187,89.6522
129.2635,89.8222
129.2635,89.8222
129.2448,90.0000
129.2635,90.1778
129.2635,90.1778
129.3187,90.3478
129.3187,90.3478
129.4081,90.5027
129.4308,90.5278
129.5278,90.6355
129.5278,90.6355
129.5278,90.6355
129.6724,90.7406
129.8357,90.8133
130.0106,90.8505
130.0106,90.8505
130.1894,90.8505
130.1894,90.8505
130.3643,90.8133
130.5094,90.7487
130.5598,90.7380
131.1005,90.7380
131.1675,90.7577
131.2133,90.8105
131.2245,90.8620
131.2245,90.8793
131.2274,90.9097
131.2274,90.9097
131.2722,91.0379
131.2722,91.0379
131.3528,91.1471
131.4621,91.2278
131.5048,91.2427
131.5903,91.2726
131.6207,91.2755
131.6207,91.2755
131.8005,91.2755
131.8675,91.2952
131.9133,91.3480
131.9245,91.3995
131.9245,92.4163
131.9048,92.4834
131.8882,92.5040
131.8790,92.5132
131.8177,92.5467
131.7913,92.5495
131.6293,92.5495
131.5648,92.5315
131.5589,92.5278
131.5589,92.5278
131.5589,92.5278
131.5163,92.5159
131.5102,92.5139
131.4691,92.4976
131.4691,92.4976
131.4512,92.4958
131.4305,92.4918
131.4132,92.4870
131.4132,92.4870
131.3689,92.4870
131.3626,92.4867
131.3304,92.4834
131.3185,92.4821
131.3185,92.4821
131.3008,92.4852
131.2798,92.4870
130.5971,92.4870
130.5300,92.4673
130.4987,92.4385
130.4283,92.3467
130.3028,92.2505
130.3026,92.2504
130.1568,92.1900
130.1568,92.1900
130.0394,92.1745
130.0394,92.1745
130.0394,92.1745
130.0394,92.1745
129.0606,92.1745
128.9432,92.1900
128.9432,92.1900
128.7972,92.2505
128.6717,92.3467
128.5755,92.4722
128.5150,92.6182
128.5150,92.6182
128.4995,92.7356
128.4995,93.3394
128.5150,93.4568
128.5150,93.4568
128.5715,93.5934
128.5755,93.6028
128.6717,93.7283
128.7972,93.8245
128.8205,93.8342
128.8235,93.8354
128.8779,93.8793
128.8999,93.9456
128.8827,94.0133
128.8315,94.0609
128.8235,94.0646
128.7972,94.0755
128.6717,94.1717
128.5755,94.2972
128.5150,94.4432
128.5150,94.4432
128.4995,94.5606
128.4995,95.1644
128.5150,95.2818
128.5150,95.2818
128.5485,95.3628
128.5755,95.4278
128.6717,95.5533
128.7972,95.6495
128.7972,95.6495
128.7972,95.6495
128.8730,95.6809
128.9274,95.7248
128.9494,95.7911
128.9495,95.7955
128.9495,95.8024
128.9298,95.8695
128.8770,95.9152
128.8730,95.9170
128.7941,95.9497
128.6699,96.0449
128.5747,96.1691
128.5148,96.3136
128.5148,96.3136
128.4995,96.4298
128.4995,96.4298
128.4995,96.9952
126.9505,96.9952
126.9505,82.2745
126.9702,82.2075
127.0230,82.1617
127.0745,82.1505
171.6808,82.1505
Z" /> 
</g>
</g>
</g>
<g style="fill:#000000; fill-opacity:1.0000; 
stroke:#000000; stroke-width:0.0000; stroke-opacity:1; 
stroke-linecap:round; stroke-linejoin:round;">
</g>
<g style="fill:#000000; fill-opacity:0.0; 
stroke:#000000; stroke-width:0.1000; stroke-opacity:1; 
stroke-linecap:round; stroke-linejoin:round;">
<path style="fill:#000000; fill-opacity:0.0; 
stroke:#000000; stroke-width:0.1000; stroke-opacity:1; 
stroke-linecap:round; stroke-linejoin:round;fill:none"
d="M 126.9500,82.1500
173.1500,82.1500
173.1500,103.2500
126.9500,103.2500
Z" /> 
<g >
</g>
<g >
</g>
<g >
</g>
<g >
</g>
<g >
</g>
<g >
</g>
<g >
</g>
<g >
</g>
<g >
</g>
<g >
</g>
<g >
</g>
<g >
</g>
<g >
</g>
<g >
</g>
<g >
</g>
<g >
</g>
<g >
</g>
<g >
</g>
<g >
</g>
<g >
</g>
<g >
</g>
</g> 
</svg>
