<?xml version="1.0" standalone="no"?>
 <!DOCTYPE svg PUBLIC "-//W3C//DTD SVG 1.1//EN" 
 "http://www.w3.org/Graphics/SVG/1.1/DTD/svg11.dtd"> 
<svg
  xmlns:svg="http://www.w3.org/2000/svg"
  xmlns="http://www.w3.org/2000/svg"
  xmlns:xlink="http://www.w3.org/1999/xlink"
  version="1.1"
  width="297.0022mm" height="210.0072mm" viewBox="0.0000 0.0000 297.0022 210.0072">
<title>SVG Image created as hardware-F_Cu.svg date 2023/08/18 14:22:41 </title>
  <desc>Image generated by PCBNEW </desc>
<g style="fill:#000000; fill-opacity:1.0000;stroke:#000000; stroke-opacity:1.0000;
stroke-linecap:round; stroke-linejoin:round;"
 transform="translate(0 0) scale(1 1)">
</g>
<g style="fill:#000000; fill-opacity:0.0; 
stroke:#000000; stroke-width:0.0000; stroke-opacity:1; 
stroke-linecap:round; stroke-linejoin:round;">
</g>
<g style="fill:#000000; fill-opacity:0.0; 
stroke:#000000; stroke-width:0.3000; stroke-opacity:1; 
stroke-linecap:round; stroke-linejoin:round;">
<text x="129.4522" y="84.1500"
textLength="2.4571" font-size="2.0000" lengthAdjust="spacingAndGlyphs"
text-anchor="start" opacity="0">+</text>
<g class="stroked-text"><desc>+</desc>
<path d="M128.8977 83.3794
L127.7548 83.3794
" />
<path d="M128.3263 83.9508
L128.3263 82.8080
" />
</g><text x="131.0022" y="102.7500"
textLength="5.1714" font-size="2.0000" lengthAdjust="spacingAndGlyphs"
text-anchor="start" opacity="0">GND</text>
<g class="stroked-text"><desc>GND</desc>
<path d="M129.6620 101.1223
L129.8048 101.0508
" />
<path d="M129.8048 101.0508
L130.0191 101.0508
" />
<path d="M130.0191 101.0508
L130.2334 101.1223
" />
<path d="M130.2334 101.1223
L130.3763 101.2651
" />
<path d="M130.3763 101.2651
L130.4477 101.4080
" />
<path d="M130.4477 101.4080
L130.5191 101.6937
" />
<path d="M130.5191 101.6937
L130.5191 101.9080
" />
<path d="M130.5191 101.9080
L130.4477 102.1937
" />
<path d="M130.4477 102.1937
L130.3763 102.3365
" />
<path d="M130.3763 102.3365
L130.2334 102.4794
" />
<path d="M130.2334 102.4794
L130.0191 102.5508
" />
<path d="M130.0191 102.5508
L129.8763 102.5508
" />
<path d="M129.8763 102.5508
L129.6620 102.4794
" />
<path d="M129.6620 102.4794
L129.5905 102.4080
" />
<path d="M129.5905 102.4080
L129.5905 101.9080
" />
<path d="M129.5905 101.9080
L129.8763 101.9080
" />
<path d="M128.9477 102.5508
L128.9477 101.0508
" />
<path d="M128.9477 101.0508
L128.0905 102.5508
" />
<path d="M128.0905 102.5508
L128.0905 101.0508
" />
<path d="M127.3763 102.5508
L127.3763 101.0508
" />
<path d="M127.3763 101.0508
L127.0191 101.0508
" />
<path d="M127.0191 101.0508
L126.8048 101.1223
" />
<path d="M126.8048 101.1223
L126.6620 101.2651
" />
<path d="M126.6620 101.2651
L126.5905 101.4080
" />
<path d="M126.5905 101.4080
L126.5191 101.6937
" />
<path d="M126.5191 101.6937
L126.5191 101.9080
" />
<path d="M126.5191 101.9080
L126.5905 102.1937
" />
<path d="M126.5905 102.1937
L126.6620 102.3365
" />
<path d="M126.6620 102.3365
L126.8048 102.4794
" />
<path d="M126.8048 102.4794
L127.0191 102.5508
" />
<path d="M127.0191 102.5508
L127.3763 102.5508
" />
</g><g >
</g>
<g >
</g>
<g >
</g>
<g >
</g>
<g style="fill:#000000; fill-opacity:0.0; 
stroke:#000000; stroke-width:0.3000; stroke-opacity:1; 
stroke-linecap:round; stroke-linejoin:round;">
</g>
<g style="fill:#000000; fill-opacity:1.0000; 
stroke:#000000; stroke-width:0.0000; stroke-opacity:1; 
stroke-linecap:round; stroke-linejoin:round;">
<circle cx="157.1322" cy="100.3500" r="0.7620" /> 
</g>
<g style="fill:#000000; fill-opacity:1.0000; 
stroke:#000000; stroke-width:0.0212; stroke-opacity:1; 
stroke-linecap:round; stroke-linejoin:round;">
</g>
<g style="fill:#000000; fill-opacity:1.0000; 
stroke:#000000; stroke-width:0.0000; stroke-opacity:1; 
stroke-linecap:round; stroke-linejoin:round;">
<circle cx="154.5922" cy="100.3500" r="0.7620" /> 
</g>
<g style="fill:#000000; fill-opacity:1.0000; 
stroke:#000000; stroke-width:0.0212; stroke-opacity:1; 
stroke-linecap:round; stroke-linejoin:round;">
</g>
<g style="fill:#000000; fill-opacity:1.0000; 
stroke:#000000; stroke-width:0.0000; stroke-opacity:1; 
stroke-linecap:round; stroke-linejoin:round;">
<circle cx="152.0522" cy="100.3500" r="0.7620" /> 
</g>
<g style="fill:#000000; fill-opacity:1.0000; 
stroke:#000000; stroke-width:0.0212; stroke-opacity:1; 
stroke-linecap:round; stroke-linejoin:round;">
</g>
<g style="fill:#000000; fill-opacity:1.0000; 
stroke:#000000; stroke-width:0.0000; stroke-opacity:1; 
stroke-linecap:round; stroke-linejoin:round;">
<circle cx="149.5122" cy="100.3500" r="0.7620" /> 
</g>
<g style="fill:#000000; fill-opacity:1.0000; 
stroke:#000000; stroke-width:0.0212; stroke-opacity:1; 
stroke-linecap:round; stroke-linejoin:round;">
</g>
<g style="fill:#000000; fill-opacity:1.0000; 
stroke:#000000; stroke-width:0.0000; stroke-opacity:1; 
stroke-linecap:round; stroke-linejoin:round;">
<circle cx="146.9722" cy="100.3500" r="0.7620" /> 
</g>
<g style="fill:#000000; fill-opacity:1.0000; 
stroke:#000000; stroke-width:0.0212; stroke-opacity:1; 
stroke-linecap:round; stroke-linejoin:round;">
</g>
<g style="fill:#000000; fill-opacity:1.0000; 
stroke:#000000; stroke-width:0.0000; stroke-opacity:1; 
stroke-linecap:round; stroke-linejoin:round;">
<circle cx="144.4322" cy="100.3500" r="0.7620" /> 
</g>
<g style="fill:#000000; fill-opacity:1.0000; 
stroke:#000000; stroke-width:0.0212; stroke-opacity:1; 
stroke-linecap:round; stroke-linejoin:round;">
</g>
<g style="fill:#000000; fill-opacity:1.0000; 
stroke:#000000; stroke-width:0.0000; stroke-opacity:1; 
stroke-linecap:round; stroke-linejoin:round;">
<circle cx="144.4322" cy="85.1100" r="0.7620" /> 
</g>
<g style="fill:#000000; fill-opacity:1.0000; 
stroke:#000000; stroke-width:0.0212; stroke-opacity:1; 
stroke-linecap:round; stroke-linejoin:round;">
</g>
<g style="fill:#000000; fill-opacity:1.0000; 
stroke:#000000; stroke-width:0.0000; stroke-opacity:1; 
stroke-linecap:round; stroke-linejoin:round;">
<circle cx="146.9722" cy="85.1100" r="0.7620" /> 
</g>
<g style="fill:#000000; fill-opacity:1.0000; 
stroke:#000000; stroke-width:0.0212; stroke-opacity:1; 
stroke-linecap:round; stroke-linejoin:round;">
</g>
<g style="fill:#000000; fill-opacity:1.0000; 
stroke:#000000; stroke-width:0.0000; stroke-opacity:1; 
stroke-linecap:round; stroke-linejoin:round;">
<circle cx="149.5122" cy="85.1100" r="0.7620" /> 
</g>
<g style="fill:#000000; fill-opacity:1.0000; 
stroke:#000000; stroke-width:0.0212; stroke-opacity:1; 
stroke-linecap:round; stroke-linejoin:round;">
</g>
<g style="fill:#000000; fill-opacity:1.0000; 
stroke:#000000; stroke-width:0.0000; stroke-opacity:1; 
stroke-linecap:round; stroke-linejoin:round;">
<circle cx="152.0522" cy="85.1100" r="0.7620" /> 
</g>
<g style="fill:#000000; fill-opacity:1.0000; 
stroke:#000000; stroke-width:0.0212; stroke-opacity:1; 
stroke-linecap:round; stroke-linejoin:round;">
</g>
<g style="fill:#000000; fill-opacity:1.0000; 
stroke:#000000; stroke-width:0.0000; stroke-opacity:1; 
stroke-linecap:round; stroke-linejoin:round;">
<circle cx="154.5922" cy="85.1100" r="0.7620" /> 
</g>
<g style="fill:#000000; fill-opacity:1.0000; 
stroke:#000000; stroke-width:0.0212; stroke-opacity:1; 
stroke-linecap:round; stroke-linejoin:round;">
</g>
<g style="fill:#000000; fill-opacity:1.0000; 
stroke:#000000; stroke-width:0.0000; stroke-opacity:1; 
stroke-linecap:round; stroke-linejoin:round;">
<circle cx="157.1322" cy="85.1100" r="0.7620" /> 
</g>
<g style="fill:#000000; fill-opacity:1.0000; 
stroke:#000000; stroke-width:0.0212; stroke-opacity:1; 
stroke-linecap:round; stroke-linejoin:round;">
</g>
<g >
</g>
<g >
</g>
<g >
</g>
<g style="fill:#000000; fill-opacity:1.0000; 
stroke:#000000; stroke-width:0.0212; stroke-opacity:1; 
stroke-linecap:round; stroke-linejoin:round;">
</g>
<g style="fill:#000000; fill-opacity:1.0000; 
stroke:#000000; stroke-width:0.0000; stroke-opacity:1; 
stroke-linecap:round; stroke-linejoin:round;">
<circle cx="128.3522" cy="93.3500" r="1.1000" /> 
</g>
<g style="fill:#000000; fill-opacity:1.0000; 
stroke:#000000; stroke-width:0.0212; stroke-opacity:1; 
stroke-linecap:round; stroke-linejoin:round;">
</g>
<g style="fill:#000000; fill-opacity:1.0000; 
stroke:#000000; stroke-width:0.0000; stroke-opacity:1; 
stroke-linecap:round; stroke-linejoin:round;">
<circle cx="128.3522" cy="95.8900" r="1.1000" /> 
</g>
<g style="fill:#000000; fill-opacity:1.0000; 
stroke:#000000; stroke-width:0.0212; stroke-opacity:1; 
stroke-linecap:round; stroke-linejoin:round;">
</g>
<g style="fill:#000000; fill-opacity:1.0000; 
stroke:#000000; stroke-width:0.0000; stroke-opacity:1; 
stroke-linecap:round; stroke-linejoin:round;">
<path style="fill:#000000; fill-opacity:1.0000; 
stroke:#000000; stroke-width:0.0000; stroke-opacity:1; 
stroke-linecap:round; stroke-linejoin:round;fill-rule:evenodd;"
d="M 127.2522,99.5300
129.4522,99.5300
129.4522,97.3300
127.2522,97.3300
Z" /> 
</g>
<g >
</g>
<g >
</g>
<g >
</g>
<g >
</g>
<g >
</g>
<g >
</g>
<g >
</g>
<g >
</g>
<g style="fill:#000000; fill-opacity:1.0000; 
stroke:#000000; stroke-width:0.0000; stroke-opacity:1; 
stroke-linecap:round; stroke-linejoin:round;">
<circle cx="128.3522" cy="86.7100" r="1.1000" /> 
</g>
<g style="fill:#000000; fill-opacity:1.0000; 
stroke:#000000; stroke-width:0.0212; stroke-opacity:1; 
stroke-linecap:round; stroke-linejoin:round;">
</g>
<g style="fill:#000000; fill-opacity:1.0000; 
stroke:#000000; stroke-width:0.0000; stroke-opacity:1; 
stroke-linecap:round; stroke-linejoin:round;">
<path style="fill:#000000; fill-opacity:1.0000; 
stroke:#000000; stroke-width:0.0000; stroke-opacity:1; 
stroke-linecap:round; stroke-linejoin:round;fill-rule:evenodd;"
d="M 127.2522,90.3500
129.4522,90.3500
129.4522,88.1500
127.2522,88.1500
Z" /> 
</g>
<g >
</g>
<g >
</g>
<g >
</g>
<g >
</g>
<g style="fill:#000000; fill-opacity:1.0000; 
stroke:#000000; stroke-width:0.0000; stroke-opacity:1; 
stroke-linecap:round; stroke-linejoin:round;">
<circle cx="150.8522" cy="90.3500" r="0.5000" /> 
</g>
<g style="fill:#000000; fill-opacity:1.0000; 
stroke:#000000; stroke-width:0.0212; stroke-opacity:1; 
stroke-linecap:round; stroke-linejoin:round;">
</g>
<g style="fill:#000000; fill-opacity:1.0000; 
stroke:#000000; stroke-width:0.0000; stroke-opacity:1; 
stroke-linecap:round; stroke-linejoin:round;">
<circle cx="144.5522" cy="94.8500" r="0.5000" /> 
</g>
<g style="fill:#000000; fill-opacity:1.0000; 
stroke:#000000; stroke-width:0.0212; stroke-opacity:1; 
stroke-linecap:round; stroke-linejoin:round;">
</g>
<g style="fill:#000000; fill-opacity:1.0000; 
stroke:#000000; stroke-width:0.0000; stroke-opacity:1; 
stroke-linecap:round; stroke-linejoin:round;">
<circle cx="151.5872" cy="95.0150" r="0.5000" /> 
</g>
<g style="fill:#000000; fill-opacity:1.0000; 
stroke:#000000; stroke-width:0.0212; stroke-opacity:1; 
stroke-linecap:round; stroke-linejoin:round;">
</g>
<g style="fill:#000000; fill-opacity:1.0000; 
stroke:#000000; stroke-width:0.0000; stroke-opacity:1; 
stroke-linecap:round; stroke-linejoin:round;">
<circle cx="155.3522" cy="95.4500" r="0.5000" /> 
</g>
<g style="fill:#000000; fill-opacity:1.0000; 
stroke:#000000; stroke-width:0.0212; stroke-opacity:1; 
stroke-linecap:round; stroke-linejoin:round;">
</g>
<g style="fill:#000000; fill-opacity:1.0000; 
stroke:#000000; stroke-width:0.0000; stroke-opacity:1; 
stroke-linecap:round; stroke-linejoin:round;">
<circle cx="159.2522" cy="99.3500" r="0.5000" /> 
</g>
<g style="fill:#000000; fill-opacity:1.0000; 
stroke:#000000; stroke-width:0.0212; stroke-opacity:1; 
stroke-linecap:round; stroke-linejoin:round;">
</g>
<g style="fill:#000000; fill-opacity:1.0000; 
stroke:#000000; stroke-width:0.0000; stroke-opacity:1; 
stroke-linecap:round; stroke-linejoin:round;">
<circle cx="146.6022" cy="90.3000" r="0.5000" /> 
</g>
<g style="fill:#000000; fill-opacity:1.0000; 
stroke:#000000; stroke-width:0.0212; stroke-opacity:1; 
stroke-linecap:round; stroke-linejoin:round;">
</g>
<g style="fill:#000000; fill-opacity:1.0000; 
stroke:#000000; stroke-width:0.0000; stroke-opacity:1; 
stroke-linecap:round; stroke-linejoin:round;">
<circle cx="154.8522" cy="90.0505" r="0.5000" /> 
</g>
<g style="fill:#000000; fill-opacity:1.0000; 
stroke:#000000; stroke-width:0.0212; stroke-opacity:1; 
stroke-linecap:round; stroke-linejoin:round;">
</g>
<g style="fill:#000000; fill-opacity:1.0000; 
stroke:#000000; stroke-width:0.0000; stroke-opacity:1; 
stroke-linecap:round; stroke-linejoin:round;">
<circle cx="155.0572" cy="93.4505" r="0.5000" /> 
</g>
<g style="fill:#000000; fill-opacity:1.0000; 
stroke:#000000; stroke-width:0.0212; stroke-opacity:1; 
stroke-linecap:round; stroke-linejoin:round;">
</g>
<g style="fill:#000000; fill-opacity:1.0000; 
stroke:#000000; stroke-width:0.0000; stroke-opacity:1; 
stroke-linecap:round; stroke-linejoin:round;">
<circle cx="152.8522" cy="89.9500" r="0.5000" /> 
</g>
<g style="fill:#000000; fill-opacity:1.0000; 
stroke:#000000; stroke-width:0.0212; stroke-opacity:1; 
stroke-linecap:round; stroke-linejoin:round;">
</g>
<g style="fill:#000000; fill-opacity:1.0000; 
stroke:#000000; stroke-width:0.0000; stroke-opacity:1; 
stroke-linecap:round; stroke-linejoin:round;">
<circle cx="166.9022" cy="90.0000" r="0.5000" /> 
</g>
<g style="fill:#000000; fill-opacity:1.0000; 
stroke:#000000; stroke-width:0.0212; stroke-opacity:1; 
stroke-linecap:round; stroke-linejoin:round;">
</g>
<g style="fill:#000000; fill-opacity:1.0000; 
stroke:#000000; stroke-width:0.0000; stroke-opacity:1; 
stroke-linecap:round; stroke-linejoin:round;">
<circle cx="149.0522" cy="89.9500" r="0.5000" /> 
</g>
<g style="fill:#000000; fill-opacity:1.0000; 
stroke:#000000; stroke-width:0.0212; stroke-opacity:1; 
stroke-linecap:round; stroke-linejoin:round;">
</g>
<g style="fill:#000000; fill-opacity:1.0000; 
stroke:#000000; stroke-width:0.0000; stroke-opacity:1; 
stroke-linecap:round; stroke-linejoin:round;">
<circle cx="157.7267" cy="94.2250" r="0.5000" /> 
</g>
<g style="fill:#000000; fill-opacity:1.0000; 
stroke:#000000; stroke-width:0.0212; stroke-opacity:1; 
stroke-linecap:round; stroke-linejoin:round;">
</g>
<g style="fill:#000000; fill-opacity:1.0000; 
stroke:#000000; stroke-width:0.0000; stroke-opacity:1; 
stroke-linecap:round; stroke-linejoin:round;">
<circle cx="149.9522" cy="93.2500" r="0.5000" /> 
</g>
<g style="fill:#000000; fill-opacity:1.0000; 
stroke:#000000; stroke-width:0.0212; stroke-opacity:1; 
stroke-linecap:round; stroke-linejoin:round;">
</g>
<g >
</g>
<g style="fill:#000000; fill-opacity:1.0000; 
stroke:#000000; stroke-width:0.0212; stroke-opacity:1; 
stroke-linecap:round; stroke-linejoin:round;">
</g>
<g style="fill:#000000; fill-opacity:1.0000; 
stroke:#000000; stroke-width:0.4000; stroke-opacity:1; 
stroke-linecap:round; stroke-linejoin:round;">
</g>
<g style="fill:#000000; fill-opacity:0.0; 
stroke:#000000; stroke-width:0.4000; stroke-opacity:1; 
stroke-linecap:round; stroke-linejoin:round;">
<path d="M144.5522 94.8500
L145.2522 94.1500
" />
<path d="M145.2522 94.1500
L151.1522 94.1500
" />
<path d="M151.1522 94.1500
L152.4522 92.8500
" />
<path d="M152.4522 92.8500
L152.4522 91.9500
" />
<path d="M152.4522 91.9500
L150.8522 90.3500
" />
<path d="M157.7267 94.2250
L157.9517 94.0000
" />
<path d="M157.9517 94.0000
L162.9022 94.0000
" />
<path d="M162.9022 94.0000
L166.9022 90.0000
" />
<path d="M152.0522 96.7500
L152.0522 100.3500
" />
<path d="M155.3522 95.4500
L153.3522 95.4500
" />
<path d="M153.3522 95.4500
L152.0522 96.7500
" />
<path d="M151.5872 95.0150
L152.2522 94.3500
" />
<path d="M152.2522 94.3500
L156.0522 94.3500
" />
<path d="M156.0522 94.3500
L157.1322 95.4300
" />
<path d="M157.1322 95.4300
L157.1322 100.3500
" />
</g>
<g style="fill:#000000; fill-opacity:0.0; 
stroke:#000000; stroke-width:0.5000; stroke-opacity:1; 
stroke-linecap:round; stroke-linejoin:round;">
<path d="M146.6022 90.3000
L145.8522 89.5500
" />
<path d="M145.8522 86.5300
L144.4322 85.1100
" />
<path d="M145.8522 89.5500
L145.8522 86.5300
" />
</g>
<g style="fill:#000000; fill-opacity:0.0; 
stroke:#000000; stroke-width:0.4000; stroke-opacity:1; 
stroke-linecap:round; stroke-linejoin:round;">
<path d="M152.8522 89.9500
L153.8522 90.9500
" />
<path d="M153.8522 90.9500
L156.4522 90.9500
" />
<path d="M156.4522 90.9500
L157.1322 90.2700
" />
<path d="M157.1322 90.2700
L157.1322 85.1100
" />
<path d="M154.8522 90.0505
L153.3517 88.5500
" />
<path d="M153.3517 88.5500
L147.6522 88.5500
" />
<path d="M146.9722 87.8700
L146.9722 85.1100
" />
<path d="M147.6522 88.5500
L146.9722 87.8700
" />
</g>
<g style="fill:#000000; fill-opacity:0.0; 
stroke:#000000; stroke-width:0.5000; stroke-opacity:1; 
stroke-linecap:round; stroke-linejoin:round;">
<path d="M147.4522 101.9500
L146.9722 101.4700
" />
<path d="M158.5522 101.9500
L147.4522 101.9500
" />
<path d="M159.2522 99.3500
L159.2522 101.2500
" />
<path d="M146.9722 101.4700
L146.9722 100.3500
" />
<path d="M159.2522 101.2500
L158.5522 101.9500
" />
<path d="M158.8522 84.5500
L157.8522 83.5500
" />
<path d="M158.8522 91.6500
L158.8522 84.5500
" />
<path d="M152.0522 84.1500
L152.0522 85.1100
" />
<path d="M157.8522 83.5500
L152.6522 83.5500
" />
<path d="M157.0517 93.4505
L158.8522 91.6500
" />
<path d="M152.6522 83.5500
L152.0522 84.1500
" />
<path d="M155.0572 93.4505
L157.0517 93.4505
" />
</g>
<g style="fill:#000000; fill-opacity:0.0; 
stroke:#000000; stroke-width:0.4000; stroke-opacity:1; 
stroke-linecap:round; stroke-linejoin:round;">
<path d="M149.9522 91.9500
L149.0522 91.0500
" />
<path d="M149.0522 91.0500
L149.0522 89.9500
" />
<path d="M149.9522 93.2500
L149.9522 91.9500
" />
</g>
<g >
</g>
<g style="fill:#000000; fill-opacity:0.0; 
stroke:#000000; stroke-width:0.4000; stroke-opacity:1; 
stroke-linecap:round; stroke-linejoin:round;">
<g >
</g>
<g style="fill:#000000; fill-opacity:1.0000; 
stroke:#000000; stroke-width:0.0000; stroke-opacity:1; 
stroke-linecap:round; stroke-linejoin:round;">
<path style="fill:#000000; fill-opacity:1.0000; 
stroke:#000000; stroke-width:0.0000; stroke-opacity:1; 
stroke-linecap:round; stroke-linejoin:round;fill-rule:evenodd;"
d="M 129.4604,82.1702
129.4147,82.2230
129.4035,82.2745
129.4035,82.3022
129.4035,84.4566
127.2490,84.4566
127.2490,82.2745
127.2294,82.2075
127.1766,82.1617
127.1250,82.1505
125.3214,82.1505
125.2544,82.1702
125.2086,82.2230
125.1979,82.2637
125.1873,82.3854
125.1873,82.3854
125.1261,82.6137
125.1261,82.6137
125.1261,82.6137
125.0762,82.7207
125.0262,82.8278
125.0262,82.8278
124.8907,83.0214
124.7236,83.1885
124.5300,83.3240
124.5300,83.3240
124.3159,83.4239
124.0876,83.4851
123.9678,83.4955
123.9659,83.4957
123.9008,83.5212
123.8598,83.5778
123.8527,83.6192
123.8527,101.7808
123.8724,101.8478
123.9252,101.8936
123.9659,101.9043
124.0876,101.9149
124.0876,101.9149
124.3159,101.9761
124.3159,101.9761
124.5300,102.0760
124.5300,102.0760
124.7236,102.2115
124.8907,102.3786
124.8907,102.3786
125.0262,102.5722
125.0262,102.5722
125.1261,102.7863
125.1261,102.7863
125.1873,103.0146
125.1873,103.0146
125.1979,103.1363
125.2234,103.2014
125.2800,103.2424
125.3214,103.2495
125.9118,103.2495
125.9789,103.2298
126.0246,103.1770
126.0346,103.1079
126.0183,103.0723
126.0183,100.5450
131.0199,100.5450
131.0199,103.0722
131.0052,103.0991
131.0102,103.1688
131.0521,103.2248
131.1176,103.2492
131.1264,103.2495
169.9277,103.2495
169.9947,103.2298
170.0405,103.1770
170.0517,103.1255
170.0517,90.0000
167.7574,90.0000
167.7387,90.1778
167.7387,90.1778
167.6835,90.3478
167.6834,90.3478
167.5941,90.5027
167.5714,90.5278
167.4744,90.6355
167.4744,90.6355
167.4744,90.6355
167.3298,90.7406
167.1665,90.8133
166.9916,90.8505
166.8816,90.8505
166.8145,90.8702
166.7939,90.8868
163.2981,94.3826
163.2529,94.4310
163.2151,94.4540
163.2098,94.4576
163.1745,94.4844
163.1578,94.4909
163.1389,94.5004
163.1236,94.5097
163.0810,94.5216
163.0749,94.5236
163.0338,94.5399
163.0159,94.5417
162.9951,94.5457
162.9779,94.5505
162.9336,94.5505
162.9273,94.5508
162.8832,94.5554
162.8655,94.5523
162.8445,94.5505
158.5924,94.5505
158.5254,94.5702
158.4851,94.6125
158.4342,94.7005
158.4229,94.7202
158.4186,94.7277
158.4186,94.7277
158.2989,94.8605
158.2989,94.8605
158.2989,94.8605
158.1543,94.9656
157.9910,95.0383
157.8161,95.0755
157.8161,95.0755
157.7681,95.0755
157.7011,95.0952
157.6553,95.1480
157.6454,95.2171
157.6487,95.2330
157.6538,95.2512
157.6558,95.2573
157.6721,95.2984
157.6739,95.3163
157.6779,95.3370
157.6827,95.3543
157.6827,95.3543
157.6827,95.3986
157.6830,95.4049
157.6876,95.4490
157.6876,95.4490
157.6845,95.4667
157.6827,95.4877
157.6827,99.3133
157.7024,99.3803
157.7414,99.4187
157.8055,99.4584
157.8055,99.4584
157.9579,99.5973
158.0821,99.7618
158.1740,99.9464
158.2304,100.1447
158.2495,100.3500
158.2304,100.5553
158.1740,100.7536
158.0821,100.9382
157.9579,101.1027
157.9237,101.1339
157.8874,101.1936
157.8892,101.2634
157.9284,101.3212
157.9927,101.3486
158.0072,101.3495
158.2521,101.3495
158.3191,101.3298
158.3398,101.3132
158.6154,101.0376
158.6489,100.9763
158.6517,100.9499
158.6517,100.0017
158.6320,99.9347
158.6198,99.9188
158.5603,99.8527
158.4709,99.6978
158.4157,99.5278
158.3970,99.3500
158.4157,99.1722
158.4709,99.0022
158.5603,98.8473
158.6214,98.7795
158.6800,98.7145
158.6800,98.7145
158.6800,98.7145
158.6800,98.7145
158.8246,98.6094
158.9879,98.5367
158.9879,98.5367
159.1156,98.5095
159.1628,98.4995
159.3416,98.4995
159.3722,98.5060
159.5165,98.5367
159.5165,98.5367
159.6798,98.6094
159.8244,98.7145
159.9441,98.8473
160.0334,99.0022
160.0335,99.0022
160.0887,99.1722
160.0887,99.1722
160.1074,99.3500
160.0887,99.5278
160.0887,99.5278
160.0335,99.6978
160.0334,99.6978
159.9441,99.8527
159.9284,99.8701
159.8845,99.9188
159.8543,99.9817
159.8527,100.0017
159.8527,101.2066
159.8532,101.2147
159.8579,101.2500
159.8528,101.2887
159.8527,101.2894
159.8372,101.4068
159.8372,101.4068
159.7767,101.5528
159.6805,101.6783
159.6522,101.7000
159.6461,101.7053
159.0075,102.3439
159.0022,102.3500
158.9805,102.3783
158.9503,102.4014
158.9503,102.4015
158.8550,102.4745
158.8550,102.4745
158.8550,102.4745
158.7090,102.5350
158.6306,102.5454
158.5522,102.5557
158.5522,102.5557
158.5169,102.5510
158.5088,102.5505
147.4956,102.5505
147.4875,102.5510
147.4522,102.5557
147.4522,102.5557
147.3999,102.5488
147.2954,102.5350
147.1494,102.4745
147.1494,102.4745
147.1118,102.4590
147.0882,102.4276
147.0239,102.3783
147.0022,102.3500
146.9969,102.3439
146.5783,101.9253
146.5722,101.9200
146.5439,101.8983
146.4477,101.7728
146.3872,101.6268
146.3774,101.5528
146.3665,101.4700
146.3712,101.4347
146.3717,101.4266
146.3717,101.3557
146.3520,101.2887
146.3130,101.2503
146.2989,101.2416
146.1465,101.1027
146.0223,100.9382
145.9304,100.7536
145.8740,100.5553
145.8549,100.3500
145.5495,100.3500
145.5304,100.5553
145.4740,100.7536
145.3821,100.9382
145.2579,101.1027
145.1055,101.2416
145.1055,101.2416
145.0914,101.2503
144.9302,101.3501
144.7380,101.4246
144.5353,101.4625
144.5353,101.4625
144.3291,101.4625
144.3291,101.4625
144.1264,101.4246
143.9342,101.3501
143.7589,101.2416
143.6065,101.1027
143.4823,100.9382
143.3904,100.7536
143.3340,100.5553
143.3149,100.3500
143.3340,100.1447
143.3904,99.9464
143.3962,99.9347
143.4539,99.8188
143.4823,99.7618
143.5419,99.6829
143.6065,99.5973
143.7589,99.4584
143.7589,99.4584
143.9342,99.3499
143.9342,99.3499
144.0303,99.3126
144.1264,99.2754
144.3291,99.2375
144.5353,99.2375
144.7380,99.2754
144.7380,99.2754
144.7380,99.2754
144.9302,99.3499
144.9302,99.3499
145.1055,99.4584
145.1055,99.4584
145.2579,99.5973
145.3821,99.7618
145.4740,99.9464
145.5304,100.1447
145.5495,100.3500
145.8549,100.3500
145.8740,100.1447
145.9304,99.9464
145.9362,99.9347
145.9939,99.8188
146.0223,99.7618
146.0819,99.6829
146.1465,99.5973
146.2989,99.4584
146.2989,99.4584
146.4742,99.3499
146.4742,99.3499
146.5703,99.3126
146.6664,99.2754
146.8691,99.2375
147.0753,99.2375
147.2780,99.2754
147.2780,99.2754
147.2780,99.2754
147.4702,99.3499
147.4702,99.3499
147.6455,99.4584
147.6455,99.4584
147.7979,99.5973
147.9221,99.7618
148.0140,99.9464
148.0704,100.1447
148.0895,100.3500
148.0704,100.5553
148.0140,100.7536
147.9221,100.9382
147.7979,101.1027
147.7637,101.1339
147.7274,101.1936
147.7292,101.2634
147.7684,101.3212
147.8327,101.3486
147.8472,101.3495
148.6372,101.3495
148.7042,101.3298
148.7500,101.2770
148.7599,101.2079
148.7309,101.1443
148.7207,101.1339
148.6865,101.1027
148.6865,101.1027
148.5623,100.9382
148.4704,100.7536
148.4140,100.5553
148.3949,100.3500
148.4140,100.1447
148.4704,99.9464
148.4762,99.9347
148.5339,99.8188
148.5623,99.7618
148.6219,99.6829
148.6865,99.5973
148.8389,99.4584
148.8389,99.4584
149.0142,99.3499
149.0142,99.3499
149.1103,99.3126
149.2064,99.2754
149.4091,99.2375
149.6153,99.2375
149.8180,99.2754
149.8180,99.2754
149.8180,99.2754
150.0102,99.3499
150.0102,99.3499
150.1855,99.4584
150.1855,99.4584
150.3379,99.5973
150.4621,99.7618
150.5540,99.9464
150.6104,100.1447
150.6295,100.3500
150.6104,100.5553
150.5540,100.7536
150.4621,100.9382
150.3379,101.1027
150.3037,101.1339
150.2674,101.1936
150.2692,101.2634
150.3084,101.3212
150.3727,101.3486
150.3872,101.3495
151.1772,101.3495
151.2442,101.3298
151.2900,101.2770
151.2999,101.2079
151.2709,101.1443
151.2607,101.1339
151.2265,101.1027
151.2265,101.1027
151.1023,100.9382
151.0104,100.7536
150.9540,100.5553
150.9349,100.3500
150.9540,100.1447
151.0104,99.9464
151.0162,99.9347
151.0739,99.8188
151.1023,99.7618
151.1619,99.6829
151.2265,99.5973
151.3789,99.4584
151.3789,99.4584
151.4430,99.4187
151.4896,99.3667
151.5017,99.3133
151.5017,96.7594
151.5016,96.7572
151.4994,96.6932
151.5099,96.6502
151.5111,96.6439
151.5171,96.6001
151.5243,96.5836
151.5310,96.5636
151.5353,96.5461
151.5570,96.5075
151.5598,96.5019
151.5774,96.4613
151.5887,96.4474
151.6006,96.4299
151.6094,96.4142
151.6094,96.4142
151.6314,96.3923
151.6407,96.3829
151.6450,96.3782
151.6466,96.3762
151.6729,96.3439
151.6876,96.3335
151.7038,96.3199
151.9982,96.0254
152.0317,95.9641
152.0267,95.8944
152.0234,95.8900
129.8077,95.8900
129.7878,96.1296
129.7288,96.3626
129.6322,96.5827
129.5618,96.6905
129.5008,96.7840
129.4978,96.7871
129.4669,96.8498
129.4748,96.9192
129.5189,96.9734
129.5525,96.9896
129.5534,96.9899
129.6584,97.0412
129.7410,97.1238
129.7923,97.2287
129.7923,97.2288
129.8022,97.2968
129.8022,98.1800
129.0192,98.1800
128.9521,98.1997
128.9064,98.2525
128.8954,98.3125
128.8958,98.3170
128.8958,98.3170
128.9061,98.4679
128.8995,98.4995
128.8930,98.5308
128.8986,98.6004
128.9410,98.6560
129.0067,98.6798
129.0144,98.6800
129.8022,98.6800
129.8022,99.5632
129.7923,99.6312
129.7410,99.7362
129.6584,99.8188
129.5535,99.8701
129.5534,99.8701
129.4854,99.8800
128.6022,99.8800
128.6022,99.8800
128.6022,99.0947
128.5825,99.0276
128.5297,98.9819
128.4606,98.9719
128.4448,98.9752
128.4278,98.9800
128.4278,98.9800
128.3146,98.9800
128.2431,98.9702
128.1740,98.9805
128.1215,99.0266
128.1022,99.0930
128.1022,99.8800
127.2190,99.8800
127.1510,99.8701
127.0460,99.8188
126.9634,99.7362
126.9121,99.6313
126.9121,99.6312
126.9022,99.5632
126.9022,98.6800
127.6852,98.6800
127.7523,98.6603
127.7980,98.6075
127.8090,98.5475
127.8086,98.5430
127.8009,98.4300
126.6178,98.4300
126.5976,98.6092
126.5976,98.6093
126.5380,98.7795
126.4954,98.8473
126.4420,98.9323
126.3145,99.0598
126.1617,99.1558
125.9915,99.2154
125.9915,99.2154
125.9915,99.2154
125.9010,99.2256
125.8572,99.2305
125.8572,99.2305
125.8572,99.2305
125.7672,99.2305
125.7672,99.2305
125.7001,99.2229
125.6330,99.2154
125.6329,99.2154
125.6329,99.2154
125.4627,99.1558
125.3099,99.0598
125.1824,98.9323
125.0864,98.7795
125.0268,98.6093
125.0268,98.6092
125.0066,98.4300
125.0066,98.4300
125.0268,98.2507
125.0268,98.2507
125.0535,98.1746
125.0864,98.0805
125.1824,97.9277
125.3099,97.8002
125.3099,97.8002
125.4627,97.7042
125.6329,97.6446
125.6330,97.6446
125.7672,97.6295
125.7672,97.6295
125.8572,97.6295
125.8572,97.6295
125.9915,97.6446
125.9915,97.6446
126.1617,97.7042
126.3145,97.8002
126.4420,97.9277
126.5380,98.0805
126.5976,98.2507
126.5976,98.2507
126.6178,98.4300
126.6178,98.4300
127.8009,98.4300
127.7983,98.3921
127.8114,98.3292
127.8058,98.2596
127.7634,98.2040
127.6977,98.1802
127.6900,98.1800
126.9022,98.1800
126.9022,97.2968
126.9121,97.2287
126.9634,97.1238
127.0460,97.0412
127.1510,96.9899
127.1519,96.9896
127.1530,96.9889
127.1596,96.9857
127.1592,96.9848
127.2102,96.9510
127.2383,96.8870
127.2274,96.8180
127.2066,96.7871
127.2036,96.7840
127.0722,96.5827
126.9756,96.3626
126.9166,96.1296
126.9029,95.9641
126.8967,95.8900
126.8967,95.8900
126.6178,95.8900
126.5976,96.0692
126.5976,96.0693
126.5380,96.2395
126.4997,96.3005
126.4420,96.3923
126.3145,96.5198
126.1617,96.6158
126.0723,96.6471
125.9915,96.6754
125.9915,96.6754
125.9010,96.6856
125.8572,96.6905
125.8572,96.6905
125.8572,96.6905
125.7672,96.6905
125.7672,96.6905
125.7001,96.6829
125.6330,96.6754
125.6329,96.6754
125.6329,96.6754
125.4627,96.6158
125.3099,96.5198
125.1824,96.3923
125.0864,96.2395
125.0268,96.0693
125.0232,96.0368
125.0066,95.8900
125.0066,95.8900
125.0268,95.7107
125.0268,95.7107
125.0479,95.6504
125.0864,95.5405
125.1007,95.5177
125.1262,95.4771
125.1824,95.3877
125.3099,95.2602
125.3242,95.2512
125.4627,95.1642
125.6329,95.1046
125.6330,95.1046
125.7672,95.0895
125.7672,95.0895
125.8572,95.0895
125.8572,95.0895
125.9915,95.1046
125.9915,95.1046
126.1617,95.1642
126.3145,95.2602
126.4420,95.3877
126.5380,95.5405
126.5976,95.7107
126.5976,95.7107
126.6178,95.8900
126.6178,95.8900
126.8967,95.8900
126.8967,95.8900
126.9155,95.6633
126.9166,95.6504
126.9756,95.4174
127.0722,95.1973
127.0751,95.1928
127.1517,95.0755
127.2036,94.9960
127.3664,94.8192
127.4966,94.7179
127.5374,94.6611
127.5411,94.5914
127.5065,94.5307
127.4966,94.5221
127.3664,94.4208
127.2036,94.2440
127.0722,94.0427
126.9756,93.8226
126.9166,93.5896
126.9011,93.4027
126.8967,93.3500
126.8967,93.3500
126.6178,93.3500
126.5976,93.5292
126.5976,93.5293
126.5380,93.6995
126.4875,93.7798
126.4420,93.8523
126.3145,93.9798
126.2831,93.9995
126.2012,94.0510
126.1617,94.0758
125.9915,94.1354
125.9915,94.1354
125.9010,94.1456
125.8572,94.1505
125.8572,94.1505
125.8572,94.1505
125.7672,94.1505
125.7672,94.1505
125.7001,94.1429
125.6330,94.1354
125.6329,94.1354
125.6329,94.1354
125.4627,94.0758
125.3099,93.9798
125.1824,93.8523
125.0864,93.6995
125.0268,93.5293
125.0188,93.4579
125.0066,93.3500
125.0066,93.3500
125.0268,93.1707
125.0268,93.1707
125.0479,93.1104
125.0864,93.0005
125.0868,92.9999
125.1637,92.8774
125.1824,92.8477
125.3099,92.7202
125.3263,92.7099
125.4627,92.6242
125.6329,92.5646
125.6330,92.5646
125.7672,92.5495
125.7672,92.5495
125.8572,92.5495
125.8572,92.5495
125.9915,92.5646
125.9915,92.5646
126.1617,92.6242
126.3145,92.7202
126.4420,92.8477
126.5380,93.0005
126.5976,93.1707
126.5976,93.1707
126.6178,93.3500
126.6178,93.3500
126.8967,93.3500
126.8967,93.3500
126.9142,93.1387
126.9166,93.1104
126.9756,92.8774
127.0722,92.6573
127.0853,92.6372
127.2036,92.4560
127.2036,92.4560
127.3664,92.2792
127.3664,92.2792
127.3664,92.2792
127.5561,92.1315
127.5561,92.1315
127.7675,92.0171
127.7675,92.0171
127.9949,91.9391
128.1727,91.9094
128.2320,91.8995
128.4724,91.8995
128.5198,91.9074
128.7095,91.9391
128.9369,92.0171
128.9369,92.0171
129.1483,92.1315
129.1483,92.1315
129.3380,92.2792
129.3380,92.2792
129.5008,92.4560
129.5008,92.4560
129.6322,92.6573
129.7288,92.8774
129.7878,93.1104
129.8077,93.3500
129.8077,93.3500
129.7878,93.5896
129.7288,93.8226
129.6322,94.0427
129.5618,94.1505
129.5008,94.2440
129.3380,94.4208
129.2907,94.4576
129.2078,94.5221
129.1670,94.5789
129.1633,94.6486
129.1979,94.7093
129.2078,94.7179
129.3380,94.8192
129.5008,94.9960
129.5008,94.9960
129.6322,95.1973
129.7288,95.4174
129.7878,95.6504
129.8077,95.8900
129.8077,95.8900
152.0234,95.8900
151.9849,95.8385
151.9194,95.8141
151.8601,95.8245
151.8515,95.8283
151.6766,95.8655
151.6766,95.8655
151.4978,95.8655
151.4978,95.8655
151.3229,95.8283
151.1596,95.7556
151.0150,95.6505
151.0149,95.6504
150.9890,95.6217
150.8953,95.5177
150.8059,95.3628
150.7507,95.1928
150.7320,95.0150
150.7507,94.8375
150.7381,94.7687
150.6904,94.7177
150.6274,94.7005
145.5316,94.7005
145.4645,94.7202
145.4439,94.7368
145.4419,94.7388
145.4084,94.8001
145.4063,94.8394
145.4074,94.8500
145.4074,94.8500
145.4074,94.8500
145.3979,94.9403
145.3887,95.0278
145.3887,95.0278
145.3335,95.1978
145.3334,95.1978
145.2441,95.3527
145.2243,95.3746
145.1244,95.4855
145.1244,95.4855
145.1244,95.4855
144.9798,95.5906
144.8165,95.6633
144.6416,95.7005
144.6416,95.7005
144.4628,95.7005
144.4628,95.7005
144.2879,95.6633
144.1246,95.5906
143.9800,95.4855
143.9780,95.4834
143.9480,95.4500
143.8603,95.3527
143.7709,95.1978
143.7157,95.0278
143.6970,94.8500
143.7157,94.6722
143.7159,94.6715
143.7709,94.5022
143.7710,94.5022
143.8603,94.3473
143.9072,94.2953
143.9800,94.2145
143.9800,94.2145
143.9800,94.2145
143.9800,94.2145
144.1246,94.1094
144.2879,94.0367
144.2879,94.0367
144.4156,94.0095
144.4628,93.9995
144.4628,93.9995
144.5728,93.9995
144.6399,93.9798
144.6605,93.9632
144.8563,93.7674
144.8563,93.7674
144.9015,93.7190
144.9139,93.7114
144.9393,93.6960
144.9446,93.6924
144.9799,93.6656
144.9799,93.6656
144.9966,93.6591
145.0155,93.6497
145.0308,93.6403
145.0734,93.6284
145.0795,93.6264
145.1206,93.6101
145.1206,93.6101
145.1385,93.6083
145.1592,93.6043
145.1765,93.5995
145.1765,93.5995
145.2208,93.5995
145.2271,93.5992
145.2548,93.5963
145.2712,93.5946
145.2712,93.5946
145.2889,93.5977
145.3099,93.5995
149.0008,93.5995
149.0679,93.5798
149.1136,93.5270
149.1236,93.4579
149.1188,93.4372
149.1157,93.4278
149.1157,93.4278
149.1157,93.4278
149.0970,93.2500
149.1157,93.0722
149.1555,92.9498
149.1709,92.9022
149.1710,92.9022
149.1852,92.8774
149.2603,92.7473
149.2848,92.7202
149.3698,92.6257
149.4001,92.5627
149.4017,92.5427
149.4017,92.2294
149.3820,92.1623
149.3654,92.1417
148.6696,91.4459
148.6212,91.4007
148.5982,91.3629
148.5946,91.3576
148.5678,91.3223
148.5613,91.3056
148.5519,91.2867
148.5425,91.2714
148.5306,91.2287
148.5286,91.2228
148.5123,91.1816
148.5105,91.1637
148.5065,91.1429
148.5017,91.1257
148.5017,91.0814
148.5014,91.0751
148.4968,91.0310
148.4999,91.0133
148.5017,90.9923
148.5017,90.6573
148.4820,90.5902
148.4699,90.5743
148.3603,90.4527
148.2709,90.2978
148.2157,90.1278
148.1970,89.9500
148.2157,89.7722
148.2670,89.6142
148.2709,89.6022
148.2710,89.6022
148.3603,89.4473
148.4349,89.3645
148.4843,89.3096
148.4827,89.3082
148.5142,89.2572
148.5129,89.1873
148.4740,89.1293
148.4099,89.1015
148.3946,89.1005
147.6616,89.1005
147.5954,89.1028
147.5524,89.0923
147.5461,89.0911
147.5023,89.0851
147.4858,89.0779
147.4658,89.0712
147.4483,89.0669
147.4097,89.0452
147.4041,89.0424
147.3635,89.0248
147.3496,89.0135
147.3321,89.0016
147.3293,89.0000
147.3164,88.9928
147.2851,88.9615
147.2804,88.9572
147.2461,88.9293
147.2357,88.9146
147.2221,88.8984
146.6644,88.3407
146.6031,88.3072
146.5334,88.3122
146.4774,88.3541
146.4530,88.4195
146.4527,88.4284
146.4527,89.2499
146.4724,89.3169
146.4890,89.3376
146.5646,89.4132
146.6259,89.4467
146.6523,89.4495
146.6916,89.4495
146.7222,89.4560
146.8665,89.4867
146.8665,89.4867
147.0298,89.5594
147.1744,89.6645
147.2941,89.7973
147.3834,89.9522
147.3835,89.9522
147.4387,90.1222
147.4387,90.1222
147.4574,90.3000
147.4387,90.4778
147.4387,90.4778
147.3835,90.6478
147.3834,90.6478
147.2941,90.8027
147.2767,90.8220
147.1744,90.9355
147.1744,90.9355
147.1744,90.9355
147.0298,91.0406
146.8665,91.1133
146.6916,91.1505
146.6916,91.1505
146.5128,91.1505
146.5128,91.1505
146.3379,91.1133
146.1746,91.0406
146.0300,90.9355
145.9103,90.8027
145.8209,90.6478
145.7657,90.4778
145.7509,90.3370
145.7243,90.2724
145.7153,90.2623
145.4583,90.0053
145.4522,90.0000
145.4239,89.9783
145.3277,89.8528
145.2672,89.7068
145.2517,89.5894
145.2465,89.5500
145.2512,89.5147
145.2517,89.5066
145.2517,86.8301
145.2320,86.7631
145.2154,86.7424
145.1830,86.7100
129.8077,86.7100
129.7878,86.9496
129.7288,87.1826
129.6322,87.4027
129.5618,87.5105
129.5008,87.6040
129.4978,87.6071
129.4669,87.6698
129.4748,87.7392
129.5189,87.7934
129.5525,87.8096
129.5534,87.8099
129.6584,87.8612
129.7410,87.9438
129.7923,88.0487
129.7923,88.0488
129.8022,88.1168
129.8022,89.0000
129.0192,89.0000
128.9521,89.0197
128.9064,89.0725
128.8954,89.1325
128.8958,89.1370
128.8958,89.1370
128.9061,89.2879
128.9013,89.3110
128.8930,89.3508
128.8986,89.4204
128.9410,89.4760
129.0067,89.4998
129.0144,89.5000
129.8022,89.5000
129.8022,90.3832
129.7923,90.4512
129.7410,90.5562
129.6584,90.6388
129.5535,90.6901
129.5534,90.6901
129.4854,90.7000
128.6022,90.7000
128.6022,90.7000
128.6022,89.9147
128.5825,89.8476
128.5297,89.8019
128.4606,89.7919
128.4448,89.7952
128.4278,89.8000
128.4278,89.8000
128.3146,89.8000
128.2431,89.7902
128.1740,89.8005
128.1215,89.8466
128.1022,89.9130
128.1022,90.7000
127.2190,90.7000
127.1510,90.6901
127.0460,90.6388
126.9634,90.5562
126.9121,90.4513
126.9121,90.4512
126.9022,90.3832
126.9022,89.5000
127.6852,89.5000
127.7523,89.4803
127.7980,89.4275
127.8090,89.3675
127.8053,89.3145
127.8009,89.2500
126.6178,89.2500
126.5976,89.4292
126.5976,89.4293
126.5380,89.5995
126.4870,89.6807
126.4420,89.7523
126.3145,89.8798
126.2771,89.9033
126.1887,89.9589
126.1617,89.9758
126.0372,90.0194
125.9915,90.0354
125.9915,90.0354
125.9010,90.0456
125.8572,90.0505
125.8572,90.0505
125.8572,90.0505
125.7672,90.0505
125.7672,90.0505
125.6916,90.0420
125.6330,90.0354
125.6329,90.0354
125.6329,90.0354
125.4627,89.9758
125.3099,89.8798
125.1824,89.7523
125.0864,89.5995
125.0268,89.4293
125.0268,89.4292
125.0066,89.2500
125.0066,89.2500
125.0268,89.0707
125.0268,89.0707
125.0666,88.9572
125.0864,88.9005
125.0877,88.8984
125.1824,88.7477
125.3099,88.6202
125.4627,88.5242
125.6329,88.4646
125.6330,88.4646
125.7672,88.4495
125.7672,88.4495
125.8572,88.4495
125.8572,88.4495
125.9915,88.4646
125.9915,88.4646
126.1617,88.5242
126.3145,88.6202
126.4420,88.7477
126.5380,88.9005
126.5976,89.0707
126.5976,89.0707
126.6178,89.2500
126.6178,89.2500
127.8009,89.2500
127.7983,89.2121
127.8114,89.1492
127.8058,89.0796
127.7634,89.0240
127.6977,89.0002
127.6900,89.0000
126.9022,89.0000
126.9022,88.1168
126.9121,88.0487
126.9634,87.9438
127.0460,87.8612
127.1510,87.8099
127.1519,87.8096
127.1530,87.8089
127.1596,87.8057
127.1592,87.8048
127.2102,87.7710
127.2383,87.7070
127.2274,87.6380
127.2066,87.6071
127.2036,87.6040
127.0722,87.4027
126.9756,87.1826
126.9166,86.9496
126.9067,86.8301
126.8967,86.7100
126.8967,86.7100
126.6178,86.7100
126.5976,86.8892
126.5976,86.8893
126.5380,87.0595
126.4607,87.1826
126.4420,87.2123
126.3145,87.3398
126.1617,87.4358
125.9915,87.4954
125.9915,87.4954
125.9915,87.4954
125.9010,87.5056
125.8572,87.5105
125.8572,87.5105
125.8572,87.5105
125.7672,87.5105
125.7672,87.5105
125.7001,87.5029
125.6330,87.4954
125.6329,87.4954
125.6329,87.4954
125.4627,87.4358
125.3099,87.3398
125.1824,87.2123
125.0864,87.0595
125.0268,86.8893
125.0103,86.7424
125.0066,86.7100
125.0066,86.7100
125.0268,86.5307
125.0268,86.5307
125.0864,86.3605
125.1637,86.2374
125.1824,86.2077
125.3099,86.0802
125.3719,86.0413
125.4627,85.9842
125.6329,85.9246
125.6330,85.9246
125.7672,85.9095
125.7672,85.9095
125.8572,85.9095
125.8572,85.9095
125.9915,85.9246
125.9915,85.9246
126.1617,85.9842
126.3145,86.0802
126.4420,86.2077
126.5380,86.3605
126.5976,86.5307
126.5976,86.5307
126.6178,86.7100
126.6178,86.7100
126.8967,86.7100
126.8967,86.7100
126.9166,86.4704
126.9166,86.4704
126.9756,86.2374
127.0722,86.0173
127.0824,86.0016
127.1731,85.8627
127.2036,85.8160
127.3664,85.6392
127.3664,85.6392
127.3664,85.6392
127.5561,85.4915
127.5561,85.4915
127.7675,85.3771
127.7675,85.3771
127.9949,85.2991
128.1727,85.2694
128.2320,85.2595
128.4724,85.2595
128.5198,85.2674
128.7095,85.2991
128.9369,85.3771
128.9369,85.3771
129.1483,85.4915
129.1483,85.4915
129.3380,85.6392
129.3380,85.6392
129.5008,85.8160
129.5008,85.8160
129.6322,86.0173
129.7288,86.2374
129.7878,86.4704
129.8077,86.7100
129.8077,86.7100
145.1830,86.7100
145.0037,86.5307
144.7165,86.2435
144.6551,86.2100
144.6060,86.2093
144.5353,86.2225
144.5353,86.2225
144.3291,86.2225
144.3291,86.2225
144.1264,86.1846
143.9342,86.1101
143.7589,86.0016
143.6065,85.8627
143.4823,85.6982
143.3904,85.5136
143.3340,85.3153
143.3149,85.1100
143.3340,84.9047
143.3904,84.7064
143.4823,84.5218
143.6065,84.3573
143.6065,84.3573
143.7589,84.2184
143.7589,84.2184
143.9342,84.1099
143.9342,84.1099
144.0303,84.0726
144.1264,84.0354
144.3291,83.9975
144.5353,83.9975
144.7380,84.0354
144.7380,84.0354
144.7380,84.0354
144.9302,84.1099
144.9302,84.1099
145.1055,84.2184
145.1055,84.2184
145.2579,84.3573
145.3821,84.5218
145.4740,84.7064
145.5304,84.9047
145.5495,85.1100
145.5321,85.2973
145.5455,85.3659
145.5679,85.3965
145.6903,85.5189
145.7517,85.5524
145.8214,85.5474
145.8773,85.5055
145.9017,85.4401
145.8973,85.3973
145.8740,85.3153
145.8549,85.1100
145.8740,84.9047
145.9304,84.7064
146.0223,84.5218
146.1465,84.3573
146.1465,84.3573
146.2989,84.2184
146.2989,84.2184
146.4742,84.1099
146.4742,84.1099
146.5703,84.0726
146.6664,84.0354
146.8691,83.9975
147.0753,83.9975
147.2780,84.0354
147.2780,84.0354
147.2780,84.0354
147.4702,84.1099
147.4702,84.1099
147.6455,84.2184
147.6455,84.2184
147.7979,84.3573
147.9221,84.5218
148.0140,84.7064
148.0704,84.9047
148.0895,85.1100
148.0704,85.3153
148.0140,85.5136
147.9221,85.6982
147.7979,85.8627
147.6455,86.0016
147.6312,86.0105
147.5814,86.0413
147.5348,86.0933
147.5227,86.1467
147.5227,87.5906
147.5424,87.6577
147.5590,87.6783
147.8439,87.9632
147.9052,87.9967
147.9316,87.9995
153.3423,87.9995
153.4085,87.9972
153.4085,87.9972
153.4085,87.9972
153.4515,88.0077
153.4578,88.0089
153.5016,88.0149
153.5181,88.0221
153.5381,88.0288
153.5555,88.0331
153.5556,88.0331
153.5941,88.0548
153.5998,88.0576
153.6404,88.0752
153.6543,88.0865
153.6718,88.0984
153.6875,88.1072
153.6875,88.1072
153.7188,88.1385
153.7235,88.1428
153.7578,88.1707
153.7682,88.1854
153.7818,88.2016
154.7439,89.1637
154.8052,89.1972
154.8316,89.2000
154.9416,89.2000
154.9722,89.2065
155.1165,89.2372
155.1165,89.2372
155.2798,89.3099
155.4244,89.4150
155.5441,89.5478
155.6334,89.7027
155.6335,89.7027
155.6887,89.8727
155.6887,89.8727
155.7074,90.0505
155.6887,90.2283
155.6887,90.2283
155.6858,90.2372
155.6838,90.3070
155.7199,90.3669
155.7826,90.3977
155.8037,90.3995
156.1728,90.3995
156.2399,90.3798
156.2605,90.3632
156.5454,90.0783
156.5789,90.0170
156.5817,89.9906
156.5817,86.1467
156.5620,86.0797
156.5230,86.0413
156.4589,86.0016
156.3065,85.8627
156.1823,85.6982
156.0904,85.5136
156.0340,85.3153
156.0149,85.1100
156.0340,84.9047
156.0904,84.7064
156.1823,84.5218
156.3065,84.3573
156.3065,84.3573
156.3100,84.3527
156.3089,84.3519
156.3365,84.2952
156.3283,84.2259
156.2839,84.1719
156.2174,84.1505
156.2142,84.1505
155.5102,84.1505
155.4431,84.1702
155.3974,84.2230
155.3874,84.2921
155.4149,84.3523
155.4144,84.3527
155.4162,84.3550
155.4165,84.3557
155.4178,84.3572
155.5421,84.5218
155.6340,84.7064
155.6904,84.9047
155.7095,85.1100
155.6904,85.3153
155.6340,85.5136
155.5421,85.6982
155.4179,85.8627
155.2655,86.0016
155.2655,86.0016
155.2402,86.0173
155.0902,86.1101
154.8980,86.1846
154.6953,86.2225
154.6953,86.2225
154.4891,86.2225
154.4891,86.2225
154.2864,86.1846
154.0942,86.1101
153.9189,86.0016
153.7665,85.8627
153.6423,85.6982
153.5504,85.5136
153.4940,85.3153
153.4749,85.1100
153.4940,84.9047
153.5504,84.7064
153.6423,84.5218
153.7665,84.3573
153.7665,84.3573
153.7700,84.3527
153.7689,84.3519
153.7965,84.2952
153.7883,84.2259
153.7439,84.1719
153.6774,84.1505
153.6742,84.1505
152.9702,84.1505
152.9031,84.1702
152.8574,84.2230
152.8474,84.2921
152.8749,84.3523
152.8744,84.3527
152.8762,84.3550
152.8765,84.3557
152.8778,84.3572
153.0021,84.5218
153.0940,84.7064
153.1504,84.9047
153.1695,85.1100
153.1504,85.3153
153.0940,85.5136
153.0021,85.6982
152.8779,85.8627
152.7255,86.0016
152.7255,86.0016
152.7002,86.0173
152.5502,86.1101
152.3580,86.1846
152.1553,86.2225
152.1553,86.2225
151.9491,86.2225
151.9491,86.2225
151.7464,86.1846
151.5542,86.1101
151.3789,86.0016
151.2265,85.8627
151.1023,85.6982
151.0104,85.5136
150.9540,85.3153
150.9349,85.1100
150.9349,85.1100
150.6295,85.1100
150.6104,85.3153
150.5540,85.5136
150.4621,85.6982
150.3379,85.8627
150.1855,86.0016
150.1855,86.0016
150.1602,86.0173
150.0102,86.1101
149.8180,86.1846
149.6153,86.2225
149.6153,86.2225
149.4091,86.2225
149.4091,86.2225
149.2064,86.1846
149.0142,86.1101
148.8389,86.0016
148.6865,85.8627
148.5623,85.6982
148.4704,85.5136
148.4140,85.3153
148.3949,85.1100
148.4140,84.9047
148.4704,84.7064
148.5623,84.5218
148.6865,84.3573
148.6865,84.3573
148.8389,84.2184
148.8389,84.2184
149.0142,84.1099
149.0142,84.1099
149.1103,84.0726
149.2064,84.0354
149.4091,83.9975
149.6153,83.9975
149.8180,84.0354
149.8180,84.0354
149.8180,84.0354
150.0102,84.1099
150.0102,84.1099
150.1855,84.2184
150.1855,84.2184
150.3379,84.3573
150.4621,84.5218
150.5540,84.7064
150.6104,84.9047
150.6295,85.1100
150.9349,85.1100
150.9540,84.9047
151.0104,84.7064
151.1023,84.5218
151.2265,84.3573
151.2265,84.3573
151.3789,84.2184
151.3789,84.2184
151.3927,84.2098
151.4394,84.1578
151.4504,84.1206
151.4672,83.9932
151.4672,83.9932
151.5277,83.8472
151.5277,83.8472
151.5277,83.8472
151.5998,83.7532
151.6118,83.7375
151.6239,83.7217
151.6522,83.7000
151.6583,83.6947
152.1969,83.1561
152.2022,83.1500
152.2239,83.1217
152.3494,83.0255
152.3592,83.0214
152.4954,82.9650
152.4954,82.9650
152.6128,82.9495
152.6522,82.9443
152.6875,82.9490
152.6956,82.9495
157.8088,82.9495
157.8169,82.9490
157.8522,82.9443
157.8522,82.9443
158.0228,82.9668
158.0357,82.9760
158.1550,83.0255
158.2805,83.1217
158.3022,83.1500
158.3075,83.1561
159.2461,84.0947
159.2522,84.1000
159.2805,84.1217
159.3046,84.1532
159.3767,84.2472
159.3767,84.2472
159.4372,84.3932
159.4372,84.3932
159.4579,84.5500
159.4579,84.5500
159.4532,84.5853
159.4527,84.5934
159.4527,91.6066
159.4532,91.6147
159.4579,91.6500
159.4579,91.6500
159.4527,91.6894
159.4372,91.8068
159.4372,91.8068
159.3883,91.9249
159.3767,91.9528
159.2805,92.0783
159.2522,92.1000
159.2461,92.1053
158.6415,92.7099
158.1136,93.2378
158.0801,93.2991
158.0851,93.3688
158.1270,93.4248
158.1925,93.4492
158.2013,93.4495
162.6228,93.4495
162.6899,93.4298
162.7105,93.4132
166.0125,90.1112
166.0460,90.0499
166.0481,90.0105
166.0470,90.0000
166.0657,89.8222
166.1170,89.6645
166.1209,89.6522
166.1210,89.6522
166.2103,89.4973
166.2656,89.4359
166.3300,89.3645
166.3300,89.3645
166.3300,89.3645
166.3300,89.3645
166.4746,89.2594
166.6379,89.1867
166.6379,89.1867
166.7656,89.1595
166.8128,89.1495
166.9916,89.1495
167.0222,89.1560
167.1665,89.1867
167.1665,89.1867
167.3298,89.2594
167.4744,89.3645
167.5941,89.4973
167.6834,89.6522
167.6835,89.6522
167.7387,89.8222
167.7387,89.8222
167.7574,90.0000
170.0517,90.0000
170.0517,82.2745
170.0320,82.2075
169.9792,82.1617
169.9277,82.1505
129.5275,82.1505
Z" /> 
</g>
</g>
</g>
<g style="fill:#000000; fill-opacity:1.0000; 
stroke:#000000; stroke-width:0.0000; stroke-opacity:1; 
stroke-linecap:round; stroke-linejoin:round;">
</g>
<g style="fill:#000000; fill-opacity:0.0; 
stroke:#000000; stroke-width:0.1000; stroke-opacity:1; 
stroke-linecap:round; stroke-linejoin:round;">
<path style="fill:#000000; fill-opacity:0.0; 
stroke:#000000; stroke-width:0.1000; stroke-opacity:1; 
stroke-linecap:round; stroke-linejoin:round;fill:none"
d="M 170.0522,82.1500
123.8522,82.1500
123.8522,103.2500
170.0522,103.2500
Z" /> 
<g >
</g>
<g >
</g>
<g >
</g>
<g >
</g>
<g >
</g>
<g >
</g>
<g >
</g>
<g >
</g>
<g >
</g>
<g >
</g>
<g >
</g>
<g >
</g>
<g >
</g>
<g >
</g>
<g >
</g>
<g >
</g>
<g >
</g>
<g >
</g>
<g >
</g>
<g >
</g>
<g >
</g>
</g> 
</svg>
